<mxfile host="app.diagrams.net" agent="Mozilla/5.0 (Windows NT 10.0; Win64; x64) AppleWebKit/537.36 (KHTML, like Gecko) Chrome/128.0.0.0 Safari/537.36" version="24.7.14">
  <diagram name="Página-1" id="OWBKTUqznArAJ1aGMUGh">
    <mxGraphModel grid="1" page="1" gridSize="10" guides="1" tooltips="1" connect="1" arrows="1" fold="1" pageScale="1" pageWidth="827" pageHeight="1169" math="0" shadow="0">
      <root>
        <mxCell id="0" />
        <mxCell id="1" parent="0" />
        <mxCell id="eo1EWMmAFgm19Zw0DgwI-46" style="edgeStyle=orthogonalEdgeStyle;rounded=0;orthogonalLoop=1;jettySize=auto;html=1;entryX=0.5;entryY=0;entryDx=0;entryDy=0;endArrow=none;endFill=0;" edge="1" parent="1" source="jlm8GovE4o78zpknhKyV-1" target="eo1EWMmAFgm19Zw0DgwI-42">
          <mxGeometry relative="1" as="geometry" />
        </mxCell>
        <mxCell id="h6lxW0l-rEsgfM09pOZ4-29" style="edgeStyle=orthogonalEdgeStyle;rounded=0;orthogonalLoop=1;jettySize=auto;html=1;endArrow=none;endFill=0;" edge="1" parent="1" source="jlm8GovE4o78zpknhKyV-1" target="h6lxW0l-rEsgfM09pOZ4-28">
          <mxGeometry relative="1" as="geometry">
            <Array as="points">
              <mxPoint x="-260" y="430" />
              <mxPoint x="-260" y="-188" />
            </Array>
          </mxGeometry>
        </mxCell>
        <mxCell id="jlm8GovE4o78zpknhKyV-1" value="&amp;nbsp;usuario" style="rounded=1;arcSize=10;whiteSpace=wrap;html=1;align=center;" vertex="1" parent="1">
          <mxGeometry x="-110" y="410" width="100" height="40" as="geometry" />
        </mxCell>
        <mxCell id="jlm8GovE4o78zpknhKyV-6" style="edgeStyle=orthogonalEdgeStyle;rounded=0;orthogonalLoop=1;jettySize=auto;html=1;entryX=0;entryY=0.5;entryDx=0;entryDy=0;endArrow=none;endFill=0;" edge="1" parent="1" source="jlm8GovE4o78zpknhKyV-2" target="jlm8GovE4o78zpknhKyV-3">
          <mxGeometry relative="1" as="geometry" />
        </mxCell>
        <mxCell id="jlm8GovE4o78zpknhKyV-2" value="Realiza" style="shape=rhombus;perimeter=rhombusPerimeter;whiteSpace=wrap;html=1;align=center;" vertex="1" parent="1">
          <mxGeometry x="90" y="400" width="120" height="60" as="geometry" />
        </mxCell>
        <mxCell id="jlm8GovE4o78zpknhKyV-3" value="Reservas" style="rounded=1;arcSize=10;whiteSpace=wrap;html=1;align=center;" vertex="1" parent="1">
          <mxGeometry x="313.5" y="410" width="100" height="40" as="geometry" />
        </mxCell>
        <mxCell id="jlm8GovE4o78zpknhKyV-5" style="edgeStyle=orthogonalEdgeStyle;rounded=0;orthogonalLoop=1;jettySize=auto;html=1;endArrow=none;endFill=0;" edge="1" parent="1" source="jlm8GovE4o78zpknhKyV-1">
          <mxGeometry relative="1" as="geometry">
            <mxPoint x="90" y="430" as="targetPoint" />
          </mxGeometry>
        </mxCell>
        <mxCell id="vtw1k_bzy1yQWoYEa-3J-27" style="rounded=0;orthogonalLoop=1;jettySize=auto;html=1;exitX=0.5;exitY=0;exitDx=0;exitDy=0;endArrow=none;endFill=0;" edge="1" parent="1" target="vtw1k_bzy1yQWoYEa-3J-26" source="jlm8GovE4o78zpknhKyV-8">
          <mxGeometry relative="1" as="geometry">
            <mxPoint x="1030" y="-240" as="sourcePoint" />
          </mxGeometry>
        </mxCell>
        <mxCell id="vtw1k_bzy1yQWoYEa-3J-46" style="rounded=0;orthogonalLoop=1;jettySize=auto;html=1;entryX=0.5;entryY=1;entryDx=0;entryDy=0;endArrow=none;endFill=0;" edge="1" parent="1" target="vtw1k_bzy1yQWoYEa-3J-45" source="jlm8GovE4o78zpknhKyV-8">
          <mxGeometry relative="1" as="geometry">
            <mxPoint x="1080" y="-240" as="sourcePoint" />
          </mxGeometry>
        </mxCell>
        <mxCell id="eo1EWMmAFgm19Zw0DgwI-2" style="edgeStyle=orthogonalEdgeStyle;rounded=0;orthogonalLoop=1;jettySize=auto;html=1;endArrow=none;endFill=0;exitX=0.5;exitY=1;exitDx=0;exitDy=0;" edge="1" parent="1" source="jlm8GovE4o78zpknhKyV-8" target="eo1EWMmAFgm19Zw0DgwI-1">
          <mxGeometry relative="1" as="geometry">
            <Array as="points">
              <mxPoint x="1060" y="180" />
              <mxPoint x="1060" y="180" />
            </Array>
          </mxGeometry>
        </mxCell>
        <mxCell id="h6lxW0l-rEsgfM09pOZ4-3" style="rounded=0;orthogonalLoop=1;jettySize=auto;html=1;entryX=0;entryY=0.5;entryDx=0;entryDy=0;endArrow=none;endFill=0;" edge="1" parent="1" source="jlm8GovE4o78zpknhKyV-8" target="h6lxW0l-rEsgfM09pOZ4-2">
          <mxGeometry relative="1" as="geometry" />
        </mxCell>
        <mxCell id="jlm8GovE4o78zpknhKyV-8" value="Reseñas" style="rounded=1;arcSize=10;whiteSpace=wrap;html=1;align=center;" vertex="1" parent="1">
          <mxGeometry x="1010" y="-210" width="100" height="40" as="geometry" />
        </mxCell>
        <mxCell id="jlm8GovE4o78zpknhKyV-15" style="edgeStyle=orthogonalEdgeStyle;rounded=0;orthogonalLoop=1;jettySize=auto;html=1;entryX=1;entryY=0.5;entryDx=0;entryDy=0;endArrow=none;endFill=0;" edge="1" parent="1" source="jlm8GovE4o78zpknhKyV-12" target="jlm8GovE4o78zpknhKyV-3">
          <mxGeometry relative="1" as="geometry" />
        </mxCell>
        <mxCell id="jlm8GovE4o78zpknhKyV-12" value="genera" style="shape=rhombus;perimeter=rhombusPerimeter;whiteSpace=wrap;html=1;align=center;" vertex="1" parent="1">
          <mxGeometry x="510" y="400" width="120" height="60" as="geometry" />
        </mxCell>
        <mxCell id="jlm8GovE4o78zpknhKyV-14" style="edgeStyle=orthogonalEdgeStyle;rounded=0;orthogonalLoop=1;jettySize=auto;html=1;entryX=1;entryY=0.5;entryDx=0;entryDy=0;endArrow=none;endFill=0;exitX=0;exitY=0.5;exitDx=0;exitDy=0;" edge="1" parent="1" source="jlm8GovE4o78zpknhKyV-19" target="jlm8GovE4o78zpknhKyV-12">
          <mxGeometry relative="1" as="geometry">
            <mxPoint x="700" y="400" as="sourcePoint" />
          </mxGeometry>
        </mxCell>
        <mxCell id="jlm8GovE4o78zpknhKyV-21" style="edgeStyle=orthogonalEdgeStyle;rounded=0;orthogonalLoop=1;jettySize=auto;html=1;entryX=0;entryY=0.5;entryDx=0;entryDy=0;endArrow=none;endFill=0;exitX=1;exitY=0.5;exitDx=0;exitDy=0;" edge="1" parent="1" source="jlm8GovE4o78zpknhKyV-19" target="jlm8GovE4o78zpknhKyV-16">
          <mxGeometry relative="1" as="geometry">
            <mxPoint x="1170" y="450" as="sourcePoint" />
          </mxGeometry>
        </mxCell>
        <mxCell id="jlm8GovE4o78zpknhKyV-22" style="edgeStyle=orthogonalEdgeStyle;rounded=0;orthogonalLoop=1;jettySize=auto;html=1;entryX=0;entryY=0.5;entryDx=0;entryDy=0;endArrow=none;endFill=0;" edge="1" parent="1" source="jlm8GovE4o78zpknhKyV-16" target="jlm8GovE4o78zpknhKyV-17">
          <mxGeometry relative="1" as="geometry" />
        </mxCell>
        <mxCell id="jlm8GovE4o78zpknhKyV-16" value="Realiza" style="shape=rhombus;perimeter=rhombusPerimeter;whiteSpace=wrap;html=1;align=center;" vertex="1" parent="1">
          <mxGeometry x="920.0000000000001" y="400" width="120" height="60" as="geometry" />
        </mxCell>
        <mxCell id="h6lxW0l-rEsgfM09pOZ4-33" style="edgeStyle=orthogonalEdgeStyle;rounded=0;orthogonalLoop=1;jettySize=auto;html=1;entryX=0.5;entryY=1;entryDx=0;entryDy=0;endArrow=none;endFill=0;" edge="1" parent="1" source="jlm8GovE4o78zpknhKyV-17" target="h6lxW0l-rEsgfM09pOZ4-32">
          <mxGeometry relative="1" as="geometry" />
        </mxCell>
        <mxCell id="jlm8GovE4o78zpknhKyV-17" value="Estilistas" style="rounded=1;arcSize=10;whiteSpace=wrap;html=1;align=center;" vertex="1" parent="1">
          <mxGeometry x="1165" y="410" width="100" height="40" as="geometry" />
        </mxCell>
        <mxCell id="eptWDj3NKp6KgpNxHlbf-3" style="rounded=0;orthogonalLoop=1;jettySize=auto;html=1;entryX=0.5;entryY=0;entryDx=0;entryDy=0;endArrow=none;endFill=0;" edge="1" parent="1" source="jlm8GovE4o78zpknhKyV-19" target="eptWDj3NKp6KgpNxHlbf-2">
          <mxGeometry relative="1" as="geometry" />
        </mxCell>
        <mxCell id="eptWDj3NKp6KgpNxHlbf-5" style="rounded=0;orthogonalLoop=1;jettySize=auto;html=1;entryX=0.5;entryY=0;entryDx=0;entryDy=0;endArrow=none;endFill=0;" edge="1" parent="1" source="jlm8GovE4o78zpknhKyV-19" target="eptWDj3NKp6KgpNxHlbf-4">
          <mxGeometry relative="1" as="geometry" />
        </mxCell>
        <mxCell id="eptWDj3NKp6KgpNxHlbf-108" style="edgeStyle=orthogonalEdgeStyle;rounded=0;orthogonalLoop=1;jettySize=auto;html=1;entryX=0.5;entryY=1;entryDx=0;entryDy=0;endArrow=none;endFill=0;exitX=0.5;exitY=0;exitDx=0;exitDy=0;" edge="1" parent="1" source="jlm8GovE4o78zpknhKyV-3" target="eptWDj3NKp6KgpNxHlbf-107">
          <mxGeometry relative="1" as="geometry" />
        </mxCell>
        <mxCell id="jlm8GovE4o78zpknhKyV-19" value="Servicio" style="rounded=1;arcSize=10;whiteSpace=wrap;html=1;align=center;" vertex="1" parent="1">
          <mxGeometry x="727.0000000000002" y="410" width="100" height="40" as="geometry" />
        </mxCell>
        <mxCell id="vtw1k_bzy1yQWoYEa-3J-2" style="rounded=0;orthogonalLoop=1;jettySize=auto;html=1;exitX=0.5;exitY=0;exitDx=0;exitDy=0;entryX=0;entryY=1;entryDx=0;entryDy=0;endArrow=none;endFill=0;" edge="1" parent="1" source="Y2dzQ53fjyAzNFY5iu_s-1" target="jlm8GovE4o78zpknhKyV-1">
          <mxGeometry relative="1" as="geometry">
            <mxPoint x="-170" y="585" as="sourcePoint" />
          </mxGeometry>
        </mxCell>
        <mxCell id="Y2dzQ53fjyAzNFY5iu_s-1" value="&amp;nbsp;id" style="ellipse;whiteSpace=wrap;html=1;align=center;fontStyle=4;" vertex="1" parent="1">
          <mxGeometry x="-260" y="465" width="100" height="40" as="geometry" />
        </mxCell>
        <mxCell id="vtw1k_bzy1yQWoYEa-3J-4" style="rounded=0;orthogonalLoop=1;jettySize=auto;html=1;exitX=0.5;exitY=0;exitDx=0;exitDy=0;entryX=0.5;entryY=1;entryDx=0;entryDy=0;endArrow=none;endFill=0;" edge="1" parent="1" source="vtw1k_bzy1yQWoYEa-3J-3" target="jlm8GovE4o78zpknhKyV-1">
          <mxGeometry relative="1" as="geometry" />
        </mxCell>
        <mxCell id="vtw1k_bzy1yQWoYEa-3J-3" value="&lt;font style=&quot;vertical-align: inherit;&quot;&gt;&lt;font style=&quot;vertical-align: inherit;&quot;&gt;Rol&lt;/font&gt;&lt;/font&gt;" style="ellipse;whiteSpace=wrap;html=1;align=center;" vertex="1" parent="1">
          <mxGeometry x="-160" y="560" width="100" height="40" as="geometry" />
        </mxCell>
        <mxCell id="vtw1k_bzy1yQWoYEa-3J-6" style="rounded=0;orthogonalLoop=1;jettySize=auto;html=1;exitX=0.5;exitY=0;exitDx=0;exitDy=0;entryX=0.75;entryY=1;entryDx=0;entryDy=0;endArrow=none;endFill=0;" edge="1" parent="1" source="vtw1k_bzy1yQWoYEa-3J-5" target="jlm8GovE4o78zpknhKyV-1">
          <mxGeometry relative="1" as="geometry" />
        </mxCell>
        <mxCell id="vtw1k_bzy1yQWoYEa-3J-5" value="&lt;font style=&quot;vertical-align: inherit;&quot;&gt;&lt;font style=&quot;vertical-align: inherit;&quot;&gt;correo&lt;/font&gt;&lt;/font&gt;" style="ellipse;whiteSpace=wrap;html=1;align=center;" vertex="1" parent="1">
          <mxGeometry x="-20" y="585" width="100" height="40" as="geometry" />
        </mxCell>
        <mxCell id="vtw1k_bzy1yQWoYEa-3J-7" value="&lt;font style=&quot;vertical-align: inherit;&quot;&gt;&lt;font style=&quot;vertical-align: inherit;&quot;&gt;Nombre&lt;/font&gt;&lt;/font&gt;" style="ellipse;whiteSpace=wrap;html=1;align=center;" vertex="1" parent="1">
          <mxGeometry x="80" y="505" width="100" height="40" as="geometry" />
        </mxCell>
        <mxCell id="vtw1k_bzy1yQWoYEa-3J-8" style="rounded=0;orthogonalLoop=1;jettySize=auto;html=1;exitX=0.5;exitY=0;exitDx=0;exitDy=0;entryX=0.92;entryY=1.05;entryDx=0;entryDy=0;entryPerimeter=0;endArrow=none;endFill=0;" edge="1" parent="1" source="vtw1k_bzy1yQWoYEa-3J-7" target="jlm8GovE4o78zpknhKyV-1">
          <mxGeometry relative="1" as="geometry" />
        </mxCell>
        <mxCell id="vtw1k_bzy1yQWoYEa-3J-9" value="&lt;font style=&quot;vertical-align: inherit;&quot;&gt;&lt;font style=&quot;vertical-align: inherit;&quot;&gt;Apellidos&lt;/font&gt;&lt;/font&gt;" style="ellipse;whiteSpace=wrap;html=1;align=center;" vertex="1" parent="1">
          <mxGeometry x="50" y="550" width="100" height="40" as="geometry" />
        </mxCell>
        <mxCell id="vtw1k_bzy1yQWoYEa-3J-11" style="rounded=0;orthogonalLoop=1;jettySize=auto;html=1;exitX=0.5;exitY=0;exitDx=0;exitDy=0;entryX=0.75;entryY=1;entryDx=0;entryDy=0;endArrow=none;endFill=0;" edge="1" parent="1" source="vtw1k_bzy1yQWoYEa-3J-9" target="jlm8GovE4o78zpknhKyV-1">
          <mxGeometry relative="1" as="geometry" />
        </mxCell>
        <mxCell id="vtw1k_bzy1yQWoYEa-3J-13" style="rounded=0;orthogonalLoop=1;jettySize=auto;html=1;exitX=0.5;exitY=0;exitDx=0;exitDy=0;entryX=0.25;entryY=1;entryDx=0;entryDy=0;endArrow=none;endFill=0;" edge="1" parent="1" source="vtw1k_bzy1yQWoYEa-3J-12" target="jlm8GovE4o78zpknhKyV-1">
          <mxGeometry relative="1" as="geometry" />
        </mxCell>
        <mxCell id="vtw1k_bzy1yQWoYEa-3J-12" value="Telefono" style="ellipse;whiteSpace=wrap;html=1;align=center;" vertex="1" parent="1">
          <mxGeometry x="-250" y="532.5" width="100" height="40" as="geometry" />
        </mxCell>
        <mxCell id="vtw1k_bzy1yQWoYEa-3J-15" style="rounded=0;orthogonalLoop=1;jettySize=auto;html=1;exitX=0.5;exitY=0;exitDx=0;exitDy=0;entryX=0.5;entryY=1;entryDx=0;entryDy=0;endArrow=none;endFill=0;" edge="1" parent="1" source="vtw1k_bzy1yQWoYEa-3J-14" target="jlm8GovE4o78zpknhKyV-3">
          <mxGeometry relative="1" as="geometry" />
        </mxCell>
        <mxCell id="vtw1k_bzy1yQWoYEa-3J-14" value="Estado" style="ellipse;whiteSpace=wrap;html=1;align=center;" vertex="1" parent="1">
          <mxGeometry x="260" y="570" width="100" height="40" as="geometry" />
        </mxCell>
        <mxCell id="vtw1k_bzy1yQWoYEa-3J-17" style="rounded=0;orthogonalLoop=1;jettySize=auto;html=1;exitX=0.5;exitY=0;exitDx=0;exitDy=0;entryX=0.25;entryY=1;entryDx=0;entryDy=0;endArrow=none;endFill=0;" edge="1" parent="1" source="vtw1k_bzy1yQWoYEa-3J-16" target="jlm8GovE4o78zpknhKyV-3">
          <mxGeometry relative="1" as="geometry" />
        </mxCell>
        <mxCell id="vtw1k_bzy1yQWoYEa-3J-16" value="Fecha" style="ellipse;whiteSpace=wrap;html=1;align=center;" vertex="1" parent="1">
          <mxGeometry x="190" y="530" width="100" height="40" as="geometry" />
        </mxCell>
        <mxCell id="vtw1k_bzy1yQWoYEa-3J-19" style="rounded=0;orthogonalLoop=1;jettySize=auto;html=1;exitX=0.5;exitY=0;exitDx=0;exitDy=0;entryX=0.75;entryY=1;entryDx=0;entryDy=0;endArrow=none;endFill=0;" edge="1" parent="1" source="vtw1k_bzy1yQWoYEa-3J-21" target="jlm8GovE4o78zpknhKyV-3">
          <mxGeometry relative="1" as="geometry">
            <mxPoint x="473.5" y="510" as="sourcePoint" />
          </mxGeometry>
        </mxCell>
        <mxCell id="vtw1k_bzy1yQWoYEa-3J-20" style="edgeStyle=orthogonalEdgeStyle;rounded=0;orthogonalLoop=1;jettySize=auto;html=1;exitX=0.5;exitY=1;exitDx=0;exitDy=0;" edge="1" parent="1" source="vtw1k_bzy1yQWoYEa-3J-16" target="vtw1k_bzy1yQWoYEa-3J-16">
          <mxGeometry relative="1" as="geometry" />
        </mxCell>
        <mxCell id="vtw1k_bzy1yQWoYEa-3J-21" value="id" style="ellipse;whiteSpace=wrap;html=1;align=center;fontStyle=4;" vertex="1" parent="1">
          <mxGeometry x="440" y="510" width="100" height="40" as="geometry" />
        </mxCell>
        <mxCell id="vtw1k_bzy1yQWoYEa-3J-23" style="rounded=0;orthogonalLoop=1;jettySize=auto;html=1;exitX=0.5;exitY=0;exitDx=0;exitDy=0;entryX=0.75;entryY=1;entryDx=0;entryDy=0;endArrow=none;endFill=0;" edge="1" parent="1" source="vtw1k_bzy1yQWoYEa-3J-22" target="jlm8GovE4o78zpknhKyV-3">
          <mxGeometry relative="1" as="geometry" />
        </mxCell>
        <mxCell id="vtw1k_bzy1yQWoYEa-3J-22" value="Duracion" style="ellipse;whiteSpace=wrap;html=1;align=center;" vertex="1" parent="1">
          <mxGeometry x="370" y="560" width="100" height="40" as="geometry" />
        </mxCell>
        <mxCell id="vtw1k_bzy1yQWoYEa-3J-25" style="rounded=0;orthogonalLoop=1;jettySize=auto;html=1;exitX=0.5;exitY=1;exitDx=0;exitDy=0;entryX=0.25;entryY=0;entryDx=0;entryDy=0;endArrow=none;endFill=0;" edge="1" parent="1" target="jlm8GovE4o78zpknhKyV-8">
          <mxGeometry relative="1" as="geometry">
            <mxPoint x="950" y="-260" as="sourcePoint" />
            <mxPoint x="1005" y="-240" as="targetPoint" />
          </mxGeometry>
        </mxCell>
        <mxCell id="vtw1k_bzy1yQWoYEa-3J-24" value="ID" style="ellipse;whiteSpace=wrap;html=1;align=center;fontStyle=4;" vertex="1" parent="1">
          <mxGeometry x="930" y="-290" width="100" height="40" as="geometry" />
        </mxCell>
        <mxCell id="vtw1k_bzy1yQWoYEa-3J-26" value="Fecha" style="ellipse;whiteSpace=wrap;html=1;align=center;" vertex="1" parent="1">
          <mxGeometry x="990" y="-370" width="100" height="40" as="geometry" />
        </mxCell>
        <mxCell id="Y2dzQ53fjyAzNFY5iu_s-13" value="Usuario" style="shape=table;startSize=30;container=1;collapsible=1;childLayout=tableLayout;fixedRows=1;rowLines=0;fontStyle=1;align=center;resizeLast=1;html=1;" vertex="1" parent="1">
          <mxGeometry x="-230" y="1480" width="180" height="240" as="geometry" />
        </mxCell>
        <mxCell id="Y2dzQ53fjyAzNFY5iu_s-14" value="" style="shape=tableRow;horizontal=0;startSize=0;swimlaneHead=0;swimlaneBody=0;fillColor=none;collapsible=0;dropTarget=0;points=[[0,0.5],[1,0.5]];portConstraint=eastwest;top=0;left=0;right=0;bottom=1;" vertex="1" parent="Y2dzQ53fjyAzNFY5iu_s-13">
          <mxGeometry y="30" width="180" height="30" as="geometry" />
        </mxCell>
        <mxCell id="Y2dzQ53fjyAzNFY5iu_s-15" value="PK" style="shape=partialRectangle;connectable=0;fillColor=none;top=0;left=0;bottom=0;right=0;fontStyle=1;overflow=hidden;whiteSpace=wrap;html=1;" vertex="1" parent="Y2dzQ53fjyAzNFY5iu_s-14">
          <mxGeometry width="30" height="30" as="geometry">
            <mxRectangle width="30" height="30" as="alternateBounds" />
          </mxGeometry>
        </mxCell>
        <mxCell id="Y2dzQ53fjyAzNFY5iu_s-16" value="id" style="shape=partialRectangle;connectable=0;fillColor=none;top=0;left=0;bottom=0;right=0;align=left;spacingLeft=6;fontStyle=5;overflow=hidden;whiteSpace=wrap;html=1;" vertex="1" parent="Y2dzQ53fjyAzNFY5iu_s-14">
          <mxGeometry x="30" width="150" height="30" as="geometry">
            <mxRectangle width="150" height="30" as="alternateBounds" />
          </mxGeometry>
        </mxCell>
        <mxCell id="Y2dzQ53fjyAzNFY5iu_s-17" value="" style="shape=tableRow;horizontal=0;startSize=0;swimlaneHead=0;swimlaneBody=0;fillColor=none;collapsible=0;dropTarget=0;points=[[0,0.5],[1,0.5]];portConstraint=eastwest;top=0;left=0;right=0;bottom=0;" vertex="1" parent="Y2dzQ53fjyAzNFY5iu_s-13">
          <mxGeometry y="60" width="180" height="30" as="geometry" />
        </mxCell>
        <mxCell id="Y2dzQ53fjyAzNFY5iu_s-18" value="" style="shape=partialRectangle;connectable=0;fillColor=none;top=0;left=0;bottom=0;right=0;editable=1;overflow=hidden;whiteSpace=wrap;html=1;" vertex="1" parent="Y2dzQ53fjyAzNFY5iu_s-17">
          <mxGeometry width="30" height="30" as="geometry">
            <mxRectangle width="30" height="30" as="alternateBounds" />
          </mxGeometry>
        </mxCell>
        <mxCell id="Y2dzQ53fjyAzNFY5iu_s-19" value="Telefono" style="shape=partialRectangle;connectable=0;fillColor=none;top=0;left=0;bottom=0;right=0;align=left;spacingLeft=6;overflow=hidden;whiteSpace=wrap;html=1;" vertex="1" parent="Y2dzQ53fjyAzNFY5iu_s-17">
          <mxGeometry x="30" width="150" height="30" as="geometry">
            <mxRectangle width="150" height="30" as="alternateBounds" />
          </mxGeometry>
        </mxCell>
        <mxCell id="Y2dzQ53fjyAzNFY5iu_s-20" value="" style="shape=tableRow;horizontal=0;startSize=0;swimlaneHead=0;swimlaneBody=0;fillColor=none;collapsible=0;dropTarget=0;points=[[0,0.5],[1,0.5]];portConstraint=eastwest;top=0;left=0;right=0;bottom=0;" vertex="1" parent="Y2dzQ53fjyAzNFY5iu_s-13">
          <mxGeometry y="90" width="180" height="30" as="geometry" />
        </mxCell>
        <mxCell id="Y2dzQ53fjyAzNFY5iu_s-21" value="" style="shape=partialRectangle;connectable=0;fillColor=none;top=0;left=0;bottom=0;right=0;editable=1;overflow=hidden;whiteSpace=wrap;html=1;" vertex="1" parent="Y2dzQ53fjyAzNFY5iu_s-20">
          <mxGeometry width="30" height="30" as="geometry">
            <mxRectangle width="30" height="30" as="alternateBounds" />
          </mxGeometry>
        </mxCell>
        <mxCell id="Y2dzQ53fjyAzNFY5iu_s-22" value="Rol" style="shape=partialRectangle;connectable=0;fillColor=none;top=0;left=0;bottom=0;right=0;align=left;spacingLeft=6;overflow=hidden;whiteSpace=wrap;html=1;" vertex="1" parent="Y2dzQ53fjyAzNFY5iu_s-20">
          <mxGeometry x="30" width="150" height="30" as="geometry">
            <mxRectangle width="150" height="30" as="alternateBounds" />
          </mxGeometry>
        </mxCell>
        <mxCell id="Y2dzQ53fjyAzNFY5iu_s-23" value="" style="shape=tableRow;horizontal=0;startSize=0;swimlaneHead=0;swimlaneBody=0;fillColor=none;collapsible=0;dropTarget=0;points=[[0,0.5],[1,0.5]];portConstraint=eastwest;top=0;left=0;right=0;bottom=0;" vertex="1" parent="Y2dzQ53fjyAzNFY5iu_s-13">
          <mxGeometry y="120" width="180" height="30" as="geometry" />
        </mxCell>
        <mxCell id="Y2dzQ53fjyAzNFY5iu_s-24" value="" style="shape=partialRectangle;connectable=0;fillColor=none;top=0;left=0;bottom=0;right=0;editable=1;overflow=hidden;whiteSpace=wrap;html=1;" vertex="1" parent="Y2dzQ53fjyAzNFY5iu_s-23">
          <mxGeometry width="30" height="30" as="geometry">
            <mxRectangle width="30" height="30" as="alternateBounds" />
          </mxGeometry>
        </mxCell>
        <mxCell id="Y2dzQ53fjyAzNFY5iu_s-25" value="Correo" style="shape=partialRectangle;connectable=0;fillColor=none;top=0;left=0;bottom=0;right=0;align=left;spacingLeft=6;overflow=hidden;whiteSpace=wrap;html=1;" vertex="1" parent="Y2dzQ53fjyAzNFY5iu_s-23">
          <mxGeometry x="30" width="150" height="30" as="geometry">
            <mxRectangle width="150" height="30" as="alternateBounds" />
          </mxGeometry>
        </mxCell>
        <mxCell id="Y2dzQ53fjyAzNFY5iu_s-39" value="" style="shape=tableRow;horizontal=0;startSize=0;swimlaneHead=0;swimlaneBody=0;fillColor=none;collapsible=0;dropTarget=0;points=[[0,0.5],[1,0.5]];portConstraint=eastwest;top=0;left=0;right=0;bottom=0;" vertex="1" parent="Y2dzQ53fjyAzNFY5iu_s-13">
          <mxGeometry y="150" width="180" height="30" as="geometry" />
        </mxCell>
        <mxCell id="Y2dzQ53fjyAzNFY5iu_s-40" value="" style="shape=partialRectangle;connectable=0;fillColor=none;top=0;left=0;bottom=0;right=0;editable=1;overflow=hidden;whiteSpace=wrap;html=1;" vertex="1" parent="Y2dzQ53fjyAzNFY5iu_s-39">
          <mxGeometry width="30" height="30" as="geometry">
            <mxRectangle width="30" height="30" as="alternateBounds" />
          </mxGeometry>
        </mxCell>
        <mxCell id="Y2dzQ53fjyAzNFY5iu_s-41" value="Nombre" style="shape=partialRectangle;connectable=0;fillColor=none;top=0;left=0;bottom=0;right=0;align=left;spacingLeft=6;overflow=hidden;whiteSpace=wrap;html=1;" vertex="1" parent="Y2dzQ53fjyAzNFY5iu_s-39">
          <mxGeometry x="30" width="150" height="30" as="geometry">
            <mxRectangle width="150" height="30" as="alternateBounds" />
          </mxGeometry>
        </mxCell>
        <mxCell id="Y2dzQ53fjyAzNFY5iu_s-42" value="" style="shape=tableRow;horizontal=0;startSize=0;swimlaneHead=0;swimlaneBody=0;fillColor=none;collapsible=0;dropTarget=0;points=[[0,0.5],[1,0.5]];portConstraint=eastwest;top=0;left=0;right=0;bottom=0;" vertex="1" parent="Y2dzQ53fjyAzNFY5iu_s-13">
          <mxGeometry y="180" width="180" height="30" as="geometry" />
        </mxCell>
        <mxCell id="Y2dzQ53fjyAzNFY5iu_s-43" value="" style="shape=partialRectangle;connectable=0;fillColor=none;top=0;left=0;bottom=0;right=0;editable=1;overflow=hidden;whiteSpace=wrap;html=1;" vertex="1" parent="Y2dzQ53fjyAzNFY5iu_s-42">
          <mxGeometry width="30" height="30" as="geometry">
            <mxRectangle width="30" height="30" as="alternateBounds" />
          </mxGeometry>
        </mxCell>
        <mxCell id="Y2dzQ53fjyAzNFY5iu_s-44" value="Apellido" style="shape=partialRectangle;connectable=0;fillColor=none;top=0;left=0;bottom=0;right=0;align=left;spacingLeft=6;overflow=hidden;whiteSpace=wrap;html=1;" vertex="1" parent="Y2dzQ53fjyAzNFY5iu_s-42">
          <mxGeometry x="30" width="150" height="30" as="geometry">
            <mxRectangle width="150" height="30" as="alternateBounds" />
          </mxGeometry>
        </mxCell>
        <mxCell id="eptWDj3NKp6KgpNxHlbf-132" value="" style="shape=tableRow;horizontal=0;startSize=0;swimlaneHead=0;swimlaneBody=0;fillColor=none;collapsible=0;dropTarget=0;points=[[0,0.5],[1,0.5]];portConstraint=eastwest;top=0;left=0;right=0;bottom=0;" vertex="1" parent="Y2dzQ53fjyAzNFY5iu_s-13">
          <mxGeometry y="210" width="180" height="30" as="geometry" />
        </mxCell>
        <mxCell id="eptWDj3NKp6KgpNxHlbf-133" value="Fk" style="shape=partialRectangle;connectable=0;fillColor=none;top=0;left=0;bottom=0;right=0;editable=1;overflow=hidden;whiteSpace=wrap;html=1;" vertex="1" parent="eptWDj3NKp6KgpNxHlbf-132">
          <mxGeometry width="30" height="30" as="geometry">
            <mxRectangle width="30" height="30" as="alternateBounds" />
          </mxGeometry>
        </mxCell>
        <mxCell id="eptWDj3NKp6KgpNxHlbf-134" value="idRol" style="shape=partialRectangle;connectable=0;fillColor=none;top=0;left=0;bottom=0;right=0;align=left;spacingLeft=6;overflow=hidden;whiteSpace=wrap;html=1;" vertex="1" parent="eptWDj3NKp6KgpNxHlbf-132">
          <mxGeometry x="30" width="150" height="30" as="geometry">
            <mxRectangle width="150" height="30" as="alternateBounds" />
          </mxGeometry>
        </mxCell>
        <mxCell id="Y2dzQ53fjyAzNFY5iu_s-26" value="Reserva" style="shape=table;startSize=30;container=1;collapsible=1;childLayout=tableLayout;fixedRows=1;rowLines=0;fontStyle=1;align=center;resizeLast=1;html=1;" vertex="1" parent="1">
          <mxGeometry x="190" y="1495" width="180" height="180" as="geometry" />
        </mxCell>
        <mxCell id="Y2dzQ53fjyAzNFY5iu_s-27" value="" style="shape=tableRow;horizontal=0;startSize=0;swimlaneHead=0;swimlaneBody=0;fillColor=none;collapsible=0;dropTarget=0;points=[[0,0.5],[1,0.5]];portConstraint=eastwest;top=0;left=0;right=0;bottom=1;" vertex="1" parent="Y2dzQ53fjyAzNFY5iu_s-26">
          <mxGeometry y="30" width="180" height="30" as="geometry" />
        </mxCell>
        <mxCell id="Y2dzQ53fjyAzNFY5iu_s-28" value="PK" style="shape=partialRectangle;connectable=0;fillColor=none;top=0;left=0;bottom=0;right=0;fontStyle=1;overflow=hidden;whiteSpace=wrap;html=1;" vertex="1" parent="Y2dzQ53fjyAzNFY5iu_s-27">
          <mxGeometry width="30" height="30" as="geometry">
            <mxRectangle width="30" height="30" as="alternateBounds" />
          </mxGeometry>
        </mxCell>
        <mxCell id="Y2dzQ53fjyAzNFY5iu_s-29" value="id" style="shape=partialRectangle;connectable=0;fillColor=none;top=0;left=0;bottom=0;right=0;align=left;spacingLeft=6;fontStyle=5;overflow=hidden;whiteSpace=wrap;html=1;" vertex="1" parent="Y2dzQ53fjyAzNFY5iu_s-27">
          <mxGeometry x="30" width="150" height="30" as="geometry">
            <mxRectangle width="150" height="30" as="alternateBounds" />
          </mxGeometry>
        </mxCell>
        <mxCell id="Y2dzQ53fjyAzNFY5iu_s-30" value="" style="shape=tableRow;horizontal=0;startSize=0;swimlaneHead=0;swimlaneBody=0;fillColor=none;collapsible=0;dropTarget=0;points=[[0,0.5],[1,0.5]];portConstraint=eastwest;top=0;left=0;right=0;bottom=0;" vertex="1" parent="Y2dzQ53fjyAzNFY5iu_s-26">
          <mxGeometry y="60" width="180" height="30" as="geometry" />
        </mxCell>
        <mxCell id="Y2dzQ53fjyAzNFY5iu_s-31" value="" style="shape=partialRectangle;connectable=0;fillColor=none;top=0;left=0;bottom=0;right=0;editable=1;overflow=hidden;whiteSpace=wrap;html=1;" vertex="1" parent="Y2dzQ53fjyAzNFY5iu_s-30">
          <mxGeometry width="30" height="30" as="geometry">
            <mxRectangle width="30" height="30" as="alternateBounds" />
          </mxGeometry>
        </mxCell>
        <mxCell id="Y2dzQ53fjyAzNFY5iu_s-32" value="Fecha" style="shape=partialRectangle;connectable=0;fillColor=none;top=0;left=0;bottom=0;right=0;align=left;spacingLeft=6;overflow=hidden;whiteSpace=wrap;html=1;" vertex="1" parent="Y2dzQ53fjyAzNFY5iu_s-30">
          <mxGeometry x="30" width="150" height="30" as="geometry">
            <mxRectangle width="150" height="30" as="alternateBounds" />
          </mxGeometry>
        </mxCell>
        <mxCell id="Y2dzQ53fjyAzNFY5iu_s-33" value="" style="shape=tableRow;horizontal=0;startSize=0;swimlaneHead=0;swimlaneBody=0;fillColor=none;collapsible=0;dropTarget=0;points=[[0,0.5],[1,0.5]];portConstraint=eastwest;top=0;left=0;right=0;bottom=0;" vertex="1" parent="Y2dzQ53fjyAzNFY5iu_s-26">
          <mxGeometry y="90" width="180" height="30" as="geometry" />
        </mxCell>
        <mxCell id="Y2dzQ53fjyAzNFY5iu_s-34" value="" style="shape=partialRectangle;connectable=0;fillColor=none;top=0;left=0;bottom=0;right=0;editable=1;overflow=hidden;whiteSpace=wrap;html=1;" vertex="1" parent="Y2dzQ53fjyAzNFY5iu_s-33">
          <mxGeometry width="30" height="30" as="geometry">
            <mxRectangle width="30" height="30" as="alternateBounds" />
          </mxGeometry>
        </mxCell>
        <mxCell id="Y2dzQ53fjyAzNFY5iu_s-35" value="Estado" style="shape=partialRectangle;connectable=0;fillColor=none;top=0;left=0;bottom=0;right=0;align=left;spacingLeft=6;overflow=hidden;whiteSpace=wrap;html=1;" vertex="1" parent="Y2dzQ53fjyAzNFY5iu_s-33">
          <mxGeometry x="30" width="150" height="30" as="geometry">
            <mxRectangle width="150" height="30" as="alternateBounds" />
          </mxGeometry>
        </mxCell>
        <mxCell id="Y2dzQ53fjyAzNFY5iu_s-36" value="" style="shape=tableRow;horizontal=0;startSize=0;swimlaneHead=0;swimlaneBody=0;fillColor=none;collapsible=0;dropTarget=0;points=[[0,0.5],[1,0.5]];portConstraint=eastwest;top=0;left=0;right=0;bottom=0;" vertex="1" parent="Y2dzQ53fjyAzNFY5iu_s-26">
          <mxGeometry y="120" width="180" height="30" as="geometry" />
        </mxCell>
        <mxCell id="Y2dzQ53fjyAzNFY5iu_s-37" value="" style="shape=partialRectangle;connectable=0;fillColor=none;top=0;left=0;bottom=0;right=0;editable=1;overflow=hidden;whiteSpace=wrap;html=1;" vertex="1" parent="Y2dzQ53fjyAzNFY5iu_s-36">
          <mxGeometry width="30" height="30" as="geometry">
            <mxRectangle width="30" height="30" as="alternateBounds" />
          </mxGeometry>
        </mxCell>
        <mxCell id="Y2dzQ53fjyAzNFY5iu_s-38" value="&amp;nbsp;Duración" style="shape=partialRectangle;connectable=0;fillColor=none;top=0;left=0;bottom=0;right=0;align=left;spacingLeft=6;overflow=hidden;whiteSpace=wrap;html=1;" vertex="1" parent="Y2dzQ53fjyAzNFY5iu_s-36">
          <mxGeometry x="30" width="150" height="30" as="geometry">
            <mxRectangle width="150" height="30" as="alternateBounds" />
          </mxGeometry>
        </mxCell>
        <mxCell id="w0OM0NFdh8fNn7_4wQE3-11" value="" style="shape=tableRow;horizontal=0;startSize=0;swimlaneHead=0;swimlaneBody=0;fillColor=none;collapsible=0;dropTarget=0;points=[[0,0.5],[1,0.5]];portConstraint=eastwest;top=0;left=0;right=0;bottom=0;" vertex="1" parent="Y2dzQ53fjyAzNFY5iu_s-26">
          <mxGeometry y="150" width="180" height="30" as="geometry" />
        </mxCell>
        <mxCell id="w0OM0NFdh8fNn7_4wQE3-12" value="FK" style="shape=partialRectangle;connectable=0;fillColor=none;top=0;left=0;bottom=0;right=0;editable=1;overflow=hidden;whiteSpace=wrap;html=1;" vertex="1" parent="w0OM0NFdh8fNn7_4wQE3-11">
          <mxGeometry width="30" height="30" as="geometry">
            <mxRectangle width="30" height="30" as="alternateBounds" />
          </mxGeometry>
        </mxCell>
        <mxCell id="w0OM0NFdh8fNn7_4wQE3-13" value="idUsuario" style="shape=partialRectangle;connectable=0;fillColor=none;top=0;left=0;bottom=0;right=0;align=left;spacingLeft=6;overflow=hidden;whiteSpace=wrap;html=1;" vertex="1" parent="w0OM0NFdh8fNn7_4wQE3-11">
          <mxGeometry x="30" width="150" height="30" as="geometry">
            <mxRectangle width="150" height="30" as="alternateBounds" />
          </mxGeometry>
        </mxCell>
        <mxCell id="vtw1k_bzy1yQWoYEa-3J-29" style="rounded=0;orthogonalLoop=1;jettySize=auto;html=1;exitX=0.5;exitY=0;exitDx=0;exitDy=0;entryX=0.388;entryY=0.994;entryDx=0;entryDy=0;endArrow=none;endFill=0;entryPerimeter=0;" edge="1" parent="1" source="vtw1k_bzy1yQWoYEa-3J-28" target="jlm8GovE4o78zpknhKyV-17">
          <mxGeometry relative="1" as="geometry" />
        </mxCell>
        <mxCell id="vtw1k_bzy1yQWoYEa-3J-28" value="Id" style="ellipse;whiteSpace=wrap;html=1;align=center;fontStyle=4;" vertex="1" parent="1">
          <mxGeometry x="1090" y="565" width="100" height="40" as="geometry" />
        </mxCell>
        <mxCell id="vtw1k_bzy1yQWoYEa-3J-30" value="Nombre" style="ellipse;whiteSpace=wrap;html=1;align=center;" vertex="1" parent="1">
          <mxGeometry x="1050" y="510" width="100" height="40" as="geometry" />
        </mxCell>
        <mxCell id="w0OM0NFdh8fNn7_4wQE3-4" value="1:n" style="text;strokeColor=none;fillColor=none;align=left;verticalAlign=middle;spacingLeft=4;spacingRight=4;overflow=hidden;points=[[0,0.5],[1,0.5]];portConstraint=eastwest;rotatable=0;whiteSpace=wrap;html=1;" vertex="1" parent="1">
          <mxGeometry x="-10" y="400" width="30" height="30" as="geometry" />
        </mxCell>
        <mxCell id="vtw1k_bzy1yQWoYEa-3J-33" style="rounded=0;orthogonalLoop=1;jettySize=auto;html=1;exitX=0.5;exitY=0;exitDx=0;exitDy=0;entryX=0.5;entryY=1;entryDx=0;entryDy=0;endArrow=none;endFill=0;" edge="1" parent="1" source="vtw1k_bzy1yQWoYEa-3J-32" target="jlm8GovE4o78zpknhKyV-17">
          <mxGeometry relative="1" as="geometry" />
        </mxCell>
        <mxCell id="vtw1k_bzy1yQWoYEa-3J-32" value="Apellidos&amp;nbsp;" style="ellipse;whiteSpace=wrap;html=1;align=center;" vertex="1" parent="1">
          <mxGeometry x="1141" y="612.5" width="100" height="40" as="geometry" />
        </mxCell>
        <mxCell id="w0OM0NFdh8fNn7_4wQE3-5" value="1:n" style="text;strokeColor=none;fillColor=none;align=left;verticalAlign=middle;spacingLeft=4;spacingRight=4;overflow=hidden;points=[[0,0.5],[1,0.5]];portConstraint=eastwest;rotatable=0;whiteSpace=wrap;html=1;" vertex="1" parent="1">
          <mxGeometry x="135" y="380" width="30" height="30" as="geometry" />
        </mxCell>
        <mxCell id="vtw1k_bzy1yQWoYEa-3J-31" style="rounded=0;orthogonalLoop=1;jettySize=auto;html=1;exitX=0.5;exitY=0;exitDx=0;exitDy=0;entryX=0.25;entryY=1;entryDx=0;entryDy=0;endArrow=none;endFill=0;" edge="1" parent="1" source="vtw1k_bzy1yQWoYEa-3J-30" target="jlm8GovE4o78zpknhKyV-17">
          <mxGeometry relative="1" as="geometry" />
        </mxCell>
        <mxCell id="w0OM0NFdh8fNn7_4wQE3-6" value="1:n" style="text;strokeColor=none;fillColor=none;align=left;verticalAlign=middle;spacingLeft=4;spacingRight=4;overflow=hidden;points=[[0,0.5],[1,0.5]];portConstraint=eastwest;rotatable=0;whiteSpace=wrap;html=1;" vertex="1" parent="1">
          <mxGeometry x="283.5" y="400" width="30" height="30" as="geometry" />
        </mxCell>
        <mxCell id="w0OM0NFdh8fNn7_4wQE3-7" value="1:1" style="text;strokeColor=none;fillColor=none;align=left;verticalAlign=middle;spacingLeft=4;spacingRight=4;overflow=hidden;points=[[0,0.5],[1,0.5]];portConstraint=eastwest;rotatable=0;whiteSpace=wrap;html=1;" vertex="1" parent="1">
          <mxGeometry x="430" y="400" width="30" height="30" as="geometry" />
        </mxCell>
        <mxCell id="w0OM0NFdh8fNn7_4wQE3-8" value="1:1" style="text;strokeColor=none;fillColor=none;align=left;verticalAlign=middle;spacingLeft=4;spacingRight=4;overflow=hidden;points=[[0,0.5],[1,0.5]];portConstraint=eastwest;rotatable=0;whiteSpace=wrap;html=1;" vertex="1" parent="1">
          <mxGeometry x="555" y="380" width="30" height="30" as="geometry" />
        </mxCell>
        <mxCell id="vtw1k_bzy1yQWoYEa-3J-36" style="rounded=0;orthogonalLoop=1;jettySize=auto;html=1;exitX=0;exitY=0;exitDx=0;exitDy=0;entryX=1;entryY=1;entryDx=0;entryDy=0;endArrow=none;endFill=0;" edge="1" parent="1" source="vtw1k_bzy1yQWoYEa-3J-35" target="jlm8GovE4o78zpknhKyV-17">
          <mxGeometry relative="1" as="geometry" />
        </mxCell>
        <mxCell id="vtw1k_bzy1yQWoYEa-3J-35" value="Dirreccion" style="ellipse;whiteSpace=wrap;html=1;align=center;" vertex="1" parent="1">
          <mxGeometry x="1310" y="480" width="100" height="40" as="geometry" />
        </mxCell>
        <mxCell id="w0OM0NFdh8fNn7_4wQE3-9" value="1:1" style="text;strokeColor=none;fillColor=none;align=left;verticalAlign=middle;spacingLeft=4;spacingRight=4;overflow=hidden;points=[[0,0.5],[1,0.5]];portConstraint=eastwest;rotatable=0;whiteSpace=wrap;html=1;" vertex="1" parent="1">
          <mxGeometry x="424" y="305" width="30" height="30" as="geometry" />
        </mxCell>
        <mxCell id="vtw1k_bzy1yQWoYEa-3J-38" style="rounded=0;orthogonalLoop=1;jettySize=auto;html=1;exitX=0.5;exitY=0;exitDx=0;exitDy=0;entryX=0.75;entryY=1;entryDx=0;entryDy=0;endArrow=none;endFill=0;" edge="1" parent="1" source="vtw1k_bzy1yQWoYEa-3J-37" target="jlm8GovE4o78zpknhKyV-17">
          <mxGeometry relative="1" as="geometry" />
        </mxCell>
        <mxCell id="vtw1k_bzy1yQWoYEa-3J-37" value="Telefono" style="ellipse;whiteSpace=wrap;html=1;align=center;" vertex="1" parent="1">
          <mxGeometry x="1290" y="550" width="100" height="40" as="geometry" />
        </mxCell>
        <mxCell id="vtw1k_bzy1yQWoYEa-3J-40" style="rounded=0;orthogonalLoop=1;jettySize=auto;html=1;exitX=0.5;exitY=0;exitDx=0;exitDy=0;entryX=0;entryY=1;entryDx=0;entryDy=0;endArrow=none;endFill=0;" edge="1" parent="1" source="vtw1k_bzy1yQWoYEa-3J-39" target="jlm8GovE4o78zpknhKyV-19">
          <mxGeometry relative="1" as="geometry" />
        </mxCell>
        <mxCell id="Y2dzQ53fjyAzNFY5iu_s-64" value="Estilista" style="shape=table;startSize=30;container=1;collapsible=1;childLayout=tableLayout;fixedRows=1;rowLines=0;fontStyle=1;align=center;resizeLast=1;html=1;" vertex="1" parent="1">
          <mxGeometry x="160" y="2090" width="180" height="240" as="geometry" />
        </mxCell>
        <mxCell id="Y2dzQ53fjyAzNFY5iu_s-65" value="" style="shape=tableRow;horizontal=0;startSize=0;swimlaneHead=0;swimlaneBody=0;fillColor=none;collapsible=0;dropTarget=0;points=[[0,0.5],[1,0.5]];portConstraint=eastwest;top=0;left=0;right=0;bottom=1;" vertex="1" parent="Y2dzQ53fjyAzNFY5iu_s-64">
          <mxGeometry y="30" width="180" height="30" as="geometry" />
        </mxCell>
        <mxCell id="Y2dzQ53fjyAzNFY5iu_s-66" value="PK" style="shape=partialRectangle;connectable=0;fillColor=none;top=0;left=0;bottom=0;right=0;fontStyle=1;overflow=hidden;whiteSpace=wrap;html=1;" vertex="1" parent="Y2dzQ53fjyAzNFY5iu_s-65">
          <mxGeometry width="30" height="30" as="geometry">
            <mxRectangle width="30" height="30" as="alternateBounds" />
          </mxGeometry>
        </mxCell>
        <mxCell id="Y2dzQ53fjyAzNFY5iu_s-67" value="Id" style="shape=partialRectangle;connectable=0;fillColor=none;top=0;left=0;bottom=0;right=0;align=left;spacingLeft=6;fontStyle=5;overflow=hidden;whiteSpace=wrap;html=1;" vertex="1" parent="Y2dzQ53fjyAzNFY5iu_s-65">
          <mxGeometry x="30" width="150" height="30" as="geometry">
            <mxRectangle width="150" height="30" as="alternateBounds" />
          </mxGeometry>
        </mxCell>
        <mxCell id="Y2dzQ53fjyAzNFY5iu_s-68" value="" style="shape=tableRow;horizontal=0;startSize=0;swimlaneHead=0;swimlaneBody=0;fillColor=none;collapsible=0;dropTarget=0;points=[[0,0.5],[1,0.5]];portConstraint=eastwest;top=0;left=0;right=0;bottom=0;" vertex="1" parent="Y2dzQ53fjyAzNFY5iu_s-64">
          <mxGeometry y="60" width="180" height="30" as="geometry" />
        </mxCell>
        <mxCell id="Y2dzQ53fjyAzNFY5iu_s-69" value="" style="shape=partialRectangle;connectable=0;fillColor=none;top=0;left=0;bottom=0;right=0;editable=1;overflow=hidden;whiteSpace=wrap;html=1;" vertex="1" parent="Y2dzQ53fjyAzNFY5iu_s-68">
          <mxGeometry width="30" height="30" as="geometry">
            <mxRectangle width="30" height="30" as="alternateBounds" />
          </mxGeometry>
        </mxCell>
        <mxCell id="Y2dzQ53fjyAzNFY5iu_s-70" value="Nombre" style="shape=partialRectangle;connectable=0;fillColor=none;top=0;left=0;bottom=0;right=0;align=left;spacingLeft=6;overflow=hidden;whiteSpace=wrap;html=1;" vertex="1" parent="Y2dzQ53fjyAzNFY5iu_s-68">
          <mxGeometry x="30" width="150" height="30" as="geometry">
            <mxRectangle width="150" height="30" as="alternateBounds" />
          </mxGeometry>
        </mxCell>
        <mxCell id="Y2dzQ53fjyAzNFY5iu_s-80" value="" style="shape=tableRow;horizontal=0;startSize=0;swimlaneHead=0;swimlaneBody=0;fillColor=none;collapsible=0;dropTarget=0;points=[[0,0.5],[1,0.5]];portConstraint=eastwest;top=0;left=0;right=0;bottom=0;" vertex="1" parent="Y2dzQ53fjyAzNFY5iu_s-64">
          <mxGeometry y="90" width="180" height="30" as="geometry" />
        </mxCell>
        <mxCell id="Y2dzQ53fjyAzNFY5iu_s-81" value="" style="shape=partialRectangle;connectable=0;fillColor=none;top=0;left=0;bottom=0;right=0;editable=1;overflow=hidden;whiteSpace=wrap;html=1;" vertex="1" parent="Y2dzQ53fjyAzNFY5iu_s-80">
          <mxGeometry width="30" height="30" as="geometry">
            <mxRectangle width="30" height="30" as="alternateBounds" />
          </mxGeometry>
        </mxCell>
        <mxCell id="Y2dzQ53fjyAzNFY5iu_s-82" value="Apellidos" style="shape=partialRectangle;connectable=0;fillColor=none;top=0;left=0;bottom=0;right=0;align=left;spacingLeft=6;overflow=hidden;whiteSpace=wrap;html=1;" vertex="1" parent="Y2dzQ53fjyAzNFY5iu_s-80">
          <mxGeometry x="30" width="150" height="30" as="geometry">
            <mxRectangle width="150" height="30" as="alternateBounds" />
          </mxGeometry>
        </mxCell>
        <mxCell id="Y2dzQ53fjyAzNFY5iu_s-71" value="" style="shape=tableRow;horizontal=0;startSize=0;swimlaneHead=0;swimlaneBody=0;fillColor=none;collapsible=0;dropTarget=0;points=[[0,0.5],[1,0.5]];portConstraint=eastwest;top=0;left=0;right=0;bottom=0;" vertex="1" parent="Y2dzQ53fjyAzNFY5iu_s-64">
          <mxGeometry y="120" width="180" height="30" as="geometry" />
        </mxCell>
        <mxCell id="Y2dzQ53fjyAzNFY5iu_s-72" value="" style="shape=partialRectangle;connectable=0;fillColor=none;top=0;left=0;bottom=0;right=0;editable=1;overflow=hidden;whiteSpace=wrap;html=1;" vertex="1" parent="Y2dzQ53fjyAzNFY5iu_s-71">
          <mxGeometry width="30" height="30" as="geometry">
            <mxRectangle width="30" height="30" as="alternateBounds" />
          </mxGeometry>
        </mxCell>
        <mxCell id="Y2dzQ53fjyAzNFY5iu_s-73" value="Dirección" style="shape=partialRectangle;connectable=0;fillColor=none;top=0;left=0;bottom=0;right=0;align=left;spacingLeft=6;overflow=hidden;whiteSpace=wrap;html=1;" vertex="1" parent="Y2dzQ53fjyAzNFY5iu_s-71">
          <mxGeometry x="30" width="150" height="30" as="geometry">
            <mxRectangle width="150" height="30" as="alternateBounds" />
          </mxGeometry>
        </mxCell>
        <mxCell id="Y2dzQ53fjyAzNFY5iu_s-74" value="" style="shape=tableRow;horizontal=0;startSize=0;swimlaneHead=0;swimlaneBody=0;fillColor=none;collapsible=0;dropTarget=0;points=[[0,0.5],[1,0.5]];portConstraint=eastwest;top=0;left=0;right=0;bottom=0;" vertex="1" parent="Y2dzQ53fjyAzNFY5iu_s-64">
          <mxGeometry y="150" width="180" height="30" as="geometry" />
        </mxCell>
        <mxCell id="Y2dzQ53fjyAzNFY5iu_s-75" value="" style="shape=partialRectangle;connectable=0;fillColor=none;top=0;left=0;bottom=0;right=0;editable=1;overflow=hidden;whiteSpace=wrap;html=1;" vertex="1" parent="Y2dzQ53fjyAzNFY5iu_s-74">
          <mxGeometry width="30" height="30" as="geometry">
            <mxRectangle width="30" height="30" as="alternateBounds" />
          </mxGeometry>
        </mxCell>
        <mxCell id="Y2dzQ53fjyAzNFY5iu_s-76" value="Telefono" style="shape=partialRectangle;connectable=0;fillColor=none;top=0;left=0;bottom=0;right=0;align=left;spacingLeft=6;overflow=hidden;whiteSpace=wrap;html=1;" vertex="1" parent="Y2dzQ53fjyAzNFY5iu_s-74">
          <mxGeometry x="30" width="150" height="30" as="geometry">
            <mxRectangle width="150" height="30" as="alternateBounds" />
          </mxGeometry>
        </mxCell>
        <mxCell id="Y2dzQ53fjyAzNFY5iu_s-77" value="" style="shape=tableRow;horizontal=0;startSize=0;swimlaneHead=0;swimlaneBody=0;fillColor=none;collapsible=0;dropTarget=0;points=[[0,0.5],[1,0.5]];portConstraint=eastwest;top=0;left=0;right=0;bottom=0;" vertex="1" parent="Y2dzQ53fjyAzNFY5iu_s-64">
          <mxGeometry y="180" width="180" height="30" as="geometry" />
        </mxCell>
        <mxCell id="Y2dzQ53fjyAzNFY5iu_s-78" value="" style="shape=partialRectangle;connectable=0;fillColor=none;top=0;left=0;bottom=0;right=0;editable=1;overflow=hidden;whiteSpace=wrap;html=1;" vertex="1" parent="Y2dzQ53fjyAzNFY5iu_s-77">
          <mxGeometry width="30" height="30" as="geometry">
            <mxRectangle width="30" height="30" as="alternateBounds" />
          </mxGeometry>
        </mxCell>
        <mxCell id="Y2dzQ53fjyAzNFY5iu_s-79" value="Email" style="shape=partialRectangle;connectable=0;fillColor=none;top=0;left=0;bottom=0;right=0;align=left;spacingLeft=6;overflow=hidden;whiteSpace=wrap;html=1;" vertex="1" parent="Y2dzQ53fjyAzNFY5iu_s-77">
          <mxGeometry x="30" width="150" height="30" as="geometry">
            <mxRectangle width="150" height="30" as="alternateBounds" />
          </mxGeometry>
        </mxCell>
        <mxCell id="w0OM0NFdh8fNn7_4wQE3-46" value="" style="shape=tableRow;horizontal=0;startSize=0;swimlaneHead=0;swimlaneBody=0;fillColor=none;collapsible=0;dropTarget=0;points=[[0,0.5],[1,0.5]];portConstraint=eastwest;top=0;left=0;right=0;bottom=0;" vertex="1" parent="Y2dzQ53fjyAzNFY5iu_s-64">
          <mxGeometry y="210" width="180" height="30" as="geometry" />
        </mxCell>
        <mxCell id="w0OM0NFdh8fNn7_4wQE3-47" value="FK" style="shape=partialRectangle;connectable=0;fillColor=none;top=0;left=0;bottom=0;right=0;editable=1;overflow=hidden;whiteSpace=wrap;html=1;" vertex="1" parent="w0OM0NFdh8fNn7_4wQE3-46">
          <mxGeometry width="30" height="30" as="geometry">
            <mxRectangle width="30" height="30" as="alternateBounds" />
          </mxGeometry>
        </mxCell>
        <mxCell id="w0OM0NFdh8fNn7_4wQE3-48" value="idservicio" style="shape=partialRectangle;connectable=0;fillColor=none;top=0;left=0;bottom=0;right=0;align=left;spacingLeft=6;overflow=hidden;whiteSpace=wrap;html=1;" vertex="1" parent="w0OM0NFdh8fNn7_4wQE3-46">
          <mxGeometry x="30" width="150" height="30" as="geometry">
            <mxRectangle width="150" height="30" as="alternateBounds" />
          </mxGeometry>
        </mxCell>
        <mxCell id="vtw1k_bzy1yQWoYEa-3J-42" style="rounded=0;orthogonalLoop=1;jettySize=auto;html=1;exitX=0.5;exitY=0;exitDx=0;exitDy=0;entryX=0.5;entryY=1;entryDx=0;entryDy=0;endArrow=none;endFill=0;" edge="1" parent="1" source="vtw1k_bzy1yQWoYEa-3J-41" target="jlm8GovE4o78zpknhKyV-19">
          <mxGeometry relative="1" as="geometry" />
        </mxCell>
        <mxCell id="vtw1k_bzy1yQWoYEa-3J-41" value="Descripcion" style="ellipse;whiteSpace=wrap;html=1;align=center;" vertex="1" parent="1">
          <mxGeometry x="730.0000000000002" y="610" width="100" height="40" as="geometry" />
        </mxCell>
        <mxCell id="vtw1k_bzy1yQWoYEa-3J-39" value="Id" style="ellipse;whiteSpace=wrap;html=1;align=center;fontStyle=4;" vertex="1" parent="1">
          <mxGeometry x="600.0000000000002" y="492.5" width="100" height="40" as="geometry" />
        </mxCell>
        <mxCell id="vtw1k_bzy1yQWoYEa-3J-44" style="rounded=0;orthogonalLoop=1;jettySize=auto;html=1;exitX=0.5;exitY=0;exitDx=0;exitDy=0;entryX=0.75;entryY=1;entryDx=0;entryDy=0;endArrow=none;endFill=0;" edge="1" parent="1" source="vtw1k_bzy1yQWoYEa-3J-43" target="jlm8GovE4o78zpknhKyV-19">
          <mxGeometry relative="1" as="geometry" />
        </mxCell>
        <mxCell id="vtw1k_bzy1yQWoYEa-3J-43" value="Precio" style="ellipse;whiteSpace=wrap;html=1;align=center;" vertex="1" parent="1">
          <mxGeometry x="870.0000000000002" y="505" width="100" height="40" as="geometry" />
        </mxCell>
        <mxCell id="Y2dzQ53fjyAzNFY5iu_s-85" value="Servicios" style="shape=table;startSize=30;container=1;collapsible=1;childLayout=tableLayout;fixedRows=1;rowLines=0;fontStyle=1;align=center;resizeLast=1;html=1;" vertex="1" parent="1">
          <mxGeometry x="610" y="1495" width="180" height="240" as="geometry" />
        </mxCell>
        <mxCell id="Y2dzQ53fjyAzNFY5iu_s-86" value="" style="shape=tableRow;horizontal=0;startSize=0;swimlaneHead=0;swimlaneBody=0;fillColor=none;collapsible=0;dropTarget=0;points=[[0,0.5],[1,0.5]];portConstraint=eastwest;top=0;left=0;right=0;bottom=1;" vertex="1" parent="Y2dzQ53fjyAzNFY5iu_s-85">
          <mxGeometry y="30" width="180" height="30" as="geometry" />
        </mxCell>
        <mxCell id="Y2dzQ53fjyAzNFY5iu_s-87" value="PK" style="shape=partialRectangle;connectable=0;fillColor=none;top=0;left=0;bottom=0;right=0;fontStyle=1;overflow=hidden;whiteSpace=wrap;html=1;" vertex="1" parent="Y2dzQ53fjyAzNFY5iu_s-86">
          <mxGeometry width="30" height="30" as="geometry">
            <mxRectangle width="30" height="30" as="alternateBounds" />
          </mxGeometry>
        </mxCell>
        <mxCell id="Y2dzQ53fjyAzNFY5iu_s-88" value="id" style="shape=partialRectangle;connectable=0;fillColor=none;top=0;left=0;bottom=0;right=0;align=left;spacingLeft=6;fontStyle=5;overflow=hidden;whiteSpace=wrap;html=1;" vertex="1" parent="Y2dzQ53fjyAzNFY5iu_s-86">
          <mxGeometry x="30" width="150" height="30" as="geometry">
            <mxRectangle width="150" height="30" as="alternateBounds" />
          </mxGeometry>
        </mxCell>
        <mxCell id="Y2dzQ53fjyAzNFY5iu_s-89" value="" style="shape=tableRow;horizontal=0;startSize=0;swimlaneHead=0;swimlaneBody=0;fillColor=none;collapsible=0;dropTarget=0;points=[[0,0.5],[1,0.5]];portConstraint=eastwest;top=0;left=0;right=0;bottom=0;" vertex="1" parent="Y2dzQ53fjyAzNFY5iu_s-85">
          <mxGeometry y="60" width="180" height="30" as="geometry" />
        </mxCell>
        <mxCell id="Y2dzQ53fjyAzNFY5iu_s-90" value="" style="shape=partialRectangle;connectable=0;fillColor=none;top=0;left=0;bottom=0;right=0;editable=1;overflow=hidden;whiteSpace=wrap;html=1;" vertex="1" parent="Y2dzQ53fjyAzNFY5iu_s-89">
          <mxGeometry width="30" height="30" as="geometry">
            <mxRectangle width="30" height="30" as="alternateBounds" />
          </mxGeometry>
        </mxCell>
        <mxCell id="Y2dzQ53fjyAzNFY5iu_s-91" value="duración" style="shape=partialRectangle;connectable=0;fillColor=none;top=0;left=0;bottom=0;right=0;align=left;spacingLeft=6;overflow=hidden;whiteSpace=wrap;html=1;" vertex="1" parent="Y2dzQ53fjyAzNFY5iu_s-89">
          <mxGeometry x="30" width="150" height="30" as="geometry">
            <mxRectangle width="150" height="30" as="alternateBounds" />
          </mxGeometry>
        </mxCell>
        <mxCell id="Y2dzQ53fjyAzNFY5iu_s-92" value="" style="shape=tableRow;horizontal=0;startSize=0;swimlaneHead=0;swimlaneBody=0;fillColor=none;collapsible=0;dropTarget=0;points=[[0,0.5],[1,0.5]];portConstraint=eastwest;top=0;left=0;right=0;bottom=0;" vertex="1" parent="Y2dzQ53fjyAzNFY5iu_s-85">
          <mxGeometry y="90" width="180" height="30" as="geometry" />
        </mxCell>
        <mxCell id="Y2dzQ53fjyAzNFY5iu_s-93" value="" style="shape=partialRectangle;connectable=0;fillColor=none;top=0;left=0;bottom=0;right=0;editable=1;overflow=hidden;whiteSpace=wrap;html=1;" vertex="1" parent="Y2dzQ53fjyAzNFY5iu_s-92">
          <mxGeometry width="30" height="30" as="geometry">
            <mxRectangle width="30" height="30" as="alternateBounds" />
          </mxGeometry>
        </mxCell>
        <mxCell id="Y2dzQ53fjyAzNFY5iu_s-94" value="descripción" style="shape=partialRectangle;connectable=0;fillColor=none;top=0;left=0;bottom=0;right=0;align=left;spacingLeft=6;overflow=hidden;whiteSpace=wrap;html=1;" vertex="1" parent="Y2dzQ53fjyAzNFY5iu_s-92">
          <mxGeometry x="30" width="150" height="30" as="geometry">
            <mxRectangle width="150" height="30" as="alternateBounds" />
          </mxGeometry>
        </mxCell>
        <mxCell id="Y2dzQ53fjyAzNFY5iu_s-95" value="" style="shape=tableRow;horizontal=0;startSize=0;swimlaneHead=0;swimlaneBody=0;fillColor=none;collapsible=0;dropTarget=0;points=[[0,0.5],[1,0.5]];portConstraint=eastwest;top=0;left=0;right=0;bottom=0;" vertex="1" parent="Y2dzQ53fjyAzNFY5iu_s-85">
          <mxGeometry y="120" width="180" height="30" as="geometry" />
        </mxCell>
        <mxCell id="Y2dzQ53fjyAzNFY5iu_s-96" value="" style="shape=partialRectangle;connectable=0;fillColor=none;top=0;left=0;bottom=0;right=0;editable=1;overflow=hidden;whiteSpace=wrap;html=1;" vertex="1" parent="Y2dzQ53fjyAzNFY5iu_s-95">
          <mxGeometry width="30" height="30" as="geometry">
            <mxRectangle width="30" height="30" as="alternateBounds" />
          </mxGeometry>
        </mxCell>
        <mxCell id="Y2dzQ53fjyAzNFY5iu_s-97" value="nombre" style="shape=partialRectangle;connectable=0;fillColor=none;top=0;left=0;bottom=0;right=0;align=left;spacingLeft=6;overflow=hidden;whiteSpace=wrap;html=1;" vertex="1" parent="Y2dzQ53fjyAzNFY5iu_s-95">
          <mxGeometry x="30" width="150" height="30" as="geometry">
            <mxRectangle width="150" height="30" as="alternateBounds" />
          </mxGeometry>
        </mxCell>
        <mxCell id="Y2dzQ53fjyAzNFY5iu_s-98" value="" style="shape=tableRow;horizontal=0;startSize=0;swimlaneHead=0;swimlaneBody=0;fillColor=none;collapsible=0;dropTarget=0;points=[[0,0.5],[1,0.5]];portConstraint=eastwest;top=0;left=0;right=0;bottom=0;" vertex="1" parent="Y2dzQ53fjyAzNFY5iu_s-85">
          <mxGeometry y="150" width="180" height="30" as="geometry" />
        </mxCell>
        <mxCell id="Y2dzQ53fjyAzNFY5iu_s-99" value="" style="shape=partialRectangle;connectable=0;fillColor=none;top=0;left=0;bottom=0;right=0;editable=1;overflow=hidden;whiteSpace=wrap;html=1;" vertex="1" parent="Y2dzQ53fjyAzNFY5iu_s-98">
          <mxGeometry width="30" height="30" as="geometry">
            <mxRectangle width="30" height="30" as="alternateBounds" />
          </mxGeometry>
        </mxCell>
        <mxCell id="Y2dzQ53fjyAzNFY5iu_s-100" value="precio" style="shape=partialRectangle;connectable=0;fillColor=none;top=0;left=0;bottom=0;right=0;align=left;spacingLeft=6;overflow=hidden;whiteSpace=wrap;html=1;" vertex="1" parent="Y2dzQ53fjyAzNFY5iu_s-98">
          <mxGeometry x="30" width="150" height="30" as="geometry">
            <mxRectangle width="150" height="30" as="alternateBounds" />
          </mxGeometry>
        </mxCell>
        <mxCell id="w0OM0NFdh8fNn7_4wQE3-56" value="" style="shape=tableRow;horizontal=0;startSize=0;swimlaneHead=0;swimlaneBody=0;fillColor=none;collapsible=0;dropTarget=0;points=[[0,0.5],[1,0.5]];portConstraint=eastwest;top=0;left=0;right=0;bottom=0;" vertex="1" parent="Y2dzQ53fjyAzNFY5iu_s-85">
          <mxGeometry y="180" width="180" height="30" as="geometry" />
        </mxCell>
        <mxCell id="w0OM0NFdh8fNn7_4wQE3-57" value="FK" style="shape=partialRectangle;connectable=0;fillColor=none;top=0;left=0;bottom=0;right=0;editable=1;overflow=hidden;whiteSpace=wrap;html=1;" vertex="1" parent="w0OM0NFdh8fNn7_4wQE3-56">
          <mxGeometry width="30" height="30" as="geometry">
            <mxRectangle width="30" height="30" as="alternateBounds" />
          </mxGeometry>
        </mxCell>
        <mxCell id="w0OM0NFdh8fNn7_4wQE3-58" value="IdReserva" style="shape=partialRectangle;connectable=0;fillColor=none;top=0;left=0;bottom=0;right=0;align=left;spacingLeft=6;overflow=hidden;whiteSpace=wrap;html=1;" vertex="1" parent="w0OM0NFdh8fNn7_4wQE3-56">
          <mxGeometry x="30" width="150" height="30" as="geometry">
            <mxRectangle width="150" height="30" as="alternateBounds" />
          </mxGeometry>
        </mxCell>
        <mxCell id="Mu4hMx2b1AOe4aTeyVQP-18" value="" style="shape=tableRow;horizontal=0;startSize=0;swimlaneHead=0;swimlaneBody=0;fillColor=none;collapsible=0;dropTarget=0;points=[[0,0.5],[1,0.5]];portConstraint=eastwest;top=0;left=0;right=0;bottom=0;" vertex="1" parent="Y2dzQ53fjyAzNFY5iu_s-85">
          <mxGeometry y="210" width="180" height="30" as="geometry" />
        </mxCell>
        <mxCell id="Mu4hMx2b1AOe4aTeyVQP-19" value="FK" style="shape=partialRectangle;connectable=0;fillColor=none;top=0;left=0;bottom=0;right=0;editable=1;overflow=hidden;whiteSpace=wrap;html=1;" vertex="1" parent="Mu4hMx2b1AOe4aTeyVQP-18">
          <mxGeometry width="30" height="30" as="geometry">
            <mxRectangle width="30" height="30" as="alternateBounds" />
          </mxGeometry>
        </mxCell>
        <mxCell id="Mu4hMx2b1AOe4aTeyVQP-20" value="IdReseña" style="shape=partialRectangle;connectable=0;fillColor=none;top=0;left=0;bottom=0;right=0;align=left;spacingLeft=6;overflow=hidden;whiteSpace=wrap;html=1;" vertex="1" parent="Mu4hMx2b1AOe4aTeyVQP-18">
          <mxGeometry x="30" width="150" height="30" as="geometry">
            <mxRectangle width="150" height="30" as="alternateBounds" />
          </mxGeometry>
        </mxCell>
        <mxCell id="Y2dzQ53fjyAzNFY5iu_s-104" value="Reseñas" style="shape=table;startSize=30;container=1;collapsible=1;childLayout=tableLayout;fixedRows=1;rowLines=0;fontStyle=1;align=center;resizeLast=1;html=1;" vertex="1" parent="1">
          <mxGeometry x="-620" y="900" width="180" height="210" as="geometry" />
        </mxCell>
        <mxCell id="Y2dzQ53fjyAzNFY5iu_s-105" value="" style="shape=tableRow;horizontal=0;startSize=0;swimlaneHead=0;swimlaneBody=0;fillColor=none;collapsible=0;dropTarget=0;points=[[0,0.5],[1,0.5]];portConstraint=eastwest;top=0;left=0;right=0;bottom=1;" vertex="1" parent="Y2dzQ53fjyAzNFY5iu_s-104">
          <mxGeometry y="30" width="180" height="30" as="geometry" />
        </mxCell>
        <mxCell id="Y2dzQ53fjyAzNFY5iu_s-106" value="PK" style="shape=partialRectangle;connectable=0;fillColor=none;top=0;left=0;bottom=0;right=0;fontStyle=1;overflow=hidden;whiteSpace=wrap;html=1;" vertex="1" parent="Y2dzQ53fjyAzNFY5iu_s-105">
          <mxGeometry width="30" height="30" as="geometry">
            <mxRectangle width="30" height="30" as="alternateBounds" />
          </mxGeometry>
        </mxCell>
        <mxCell id="Y2dzQ53fjyAzNFY5iu_s-107" value="id" style="shape=partialRectangle;connectable=0;fillColor=none;top=0;left=0;bottom=0;right=0;align=left;spacingLeft=6;fontStyle=5;overflow=hidden;whiteSpace=wrap;html=1;" vertex="1" parent="Y2dzQ53fjyAzNFY5iu_s-105">
          <mxGeometry x="30" width="150" height="30" as="geometry">
            <mxRectangle width="150" height="30" as="alternateBounds" />
          </mxGeometry>
        </mxCell>
        <mxCell id="Y2dzQ53fjyAzNFY5iu_s-108" value="" style="shape=tableRow;horizontal=0;startSize=0;swimlaneHead=0;swimlaneBody=0;fillColor=none;collapsible=0;dropTarget=0;points=[[0,0.5],[1,0.5]];portConstraint=eastwest;top=0;left=0;right=0;bottom=0;" vertex="1" parent="Y2dzQ53fjyAzNFY5iu_s-104">
          <mxGeometry y="60" width="180" height="30" as="geometry" />
        </mxCell>
        <mxCell id="Y2dzQ53fjyAzNFY5iu_s-109" value="" style="shape=partialRectangle;connectable=0;fillColor=none;top=0;left=0;bottom=0;right=0;editable=1;overflow=hidden;whiteSpace=wrap;html=1;" vertex="1" parent="Y2dzQ53fjyAzNFY5iu_s-108">
          <mxGeometry width="30" height="30" as="geometry">
            <mxRectangle width="30" height="30" as="alternateBounds" />
          </mxGeometry>
        </mxCell>
        <mxCell id="Y2dzQ53fjyAzNFY5iu_s-110" value="Fecha" style="shape=partialRectangle;connectable=0;fillColor=none;top=0;left=0;bottom=0;right=0;align=left;spacingLeft=6;overflow=hidden;whiteSpace=wrap;html=1;" vertex="1" parent="Y2dzQ53fjyAzNFY5iu_s-108">
          <mxGeometry x="30" width="150" height="30" as="geometry">
            <mxRectangle width="150" height="30" as="alternateBounds" />
          </mxGeometry>
        </mxCell>
        <mxCell id="Y2dzQ53fjyAzNFY5iu_s-111" value="" style="shape=tableRow;horizontal=0;startSize=0;swimlaneHead=0;swimlaneBody=0;fillColor=none;collapsible=0;dropTarget=0;points=[[0,0.5],[1,0.5]];portConstraint=eastwest;top=0;left=0;right=0;bottom=0;" vertex="1" parent="Y2dzQ53fjyAzNFY5iu_s-104">
          <mxGeometry y="90" width="180" height="30" as="geometry" />
        </mxCell>
        <mxCell id="Y2dzQ53fjyAzNFY5iu_s-112" value="" style="shape=partialRectangle;connectable=0;fillColor=none;top=0;left=0;bottom=0;right=0;editable=1;overflow=hidden;whiteSpace=wrap;html=1;" vertex="1" parent="Y2dzQ53fjyAzNFY5iu_s-111">
          <mxGeometry width="30" height="30" as="geometry">
            <mxRectangle width="30" height="30" as="alternateBounds" />
          </mxGeometry>
        </mxCell>
        <mxCell id="Y2dzQ53fjyAzNFY5iu_s-113" value="Calificación" style="shape=partialRectangle;connectable=0;fillColor=none;top=0;left=0;bottom=0;right=0;align=left;spacingLeft=6;overflow=hidden;whiteSpace=wrap;html=1;" vertex="1" parent="Y2dzQ53fjyAzNFY5iu_s-111">
          <mxGeometry x="30" width="150" height="30" as="geometry">
            <mxRectangle width="150" height="30" as="alternateBounds" />
          </mxGeometry>
        </mxCell>
        <mxCell id="h6lxW0l-rEsgfM09pOZ4-23" value="" style="shape=tableRow;horizontal=0;startSize=0;swimlaneHead=0;swimlaneBody=0;fillColor=none;collapsible=0;dropTarget=0;points=[[0,0.5],[1,0.5]];portConstraint=eastwest;top=0;left=0;right=0;bottom=0;" vertex="1" parent="Y2dzQ53fjyAzNFY5iu_s-104">
          <mxGeometry y="120" width="180" height="30" as="geometry" />
        </mxCell>
        <mxCell id="h6lxW0l-rEsgfM09pOZ4-24" value="" style="shape=partialRectangle;connectable=0;fillColor=none;top=0;left=0;bottom=0;right=0;editable=1;overflow=hidden;whiteSpace=wrap;html=1;" vertex="1" parent="h6lxW0l-rEsgfM09pOZ4-23">
          <mxGeometry width="30" height="30" as="geometry">
            <mxRectangle width="30" height="30" as="alternateBounds" />
          </mxGeometry>
        </mxCell>
        <mxCell id="h6lxW0l-rEsgfM09pOZ4-25" value="comentario" style="shape=partialRectangle;connectable=0;fillColor=none;top=0;left=0;bottom=0;right=0;align=left;spacingLeft=6;overflow=hidden;whiteSpace=wrap;html=1;" vertex="1" parent="h6lxW0l-rEsgfM09pOZ4-23">
          <mxGeometry x="30" width="150" height="30" as="geometry">
            <mxRectangle width="150" height="30" as="alternateBounds" />
          </mxGeometry>
        </mxCell>
        <mxCell id="h6lxW0l-rEsgfM09pOZ4-41" value="" style="shape=tableRow;horizontal=0;startSize=0;swimlaneHead=0;swimlaneBody=0;fillColor=none;collapsible=0;dropTarget=0;points=[[0,0.5],[1,0.5]];portConstraint=eastwest;top=0;left=0;right=0;bottom=0;" vertex="1" parent="Y2dzQ53fjyAzNFY5iu_s-104">
          <mxGeometry y="150" width="180" height="30" as="geometry" />
        </mxCell>
        <mxCell id="h6lxW0l-rEsgfM09pOZ4-42" value="Fk" style="shape=partialRectangle;connectable=0;fillColor=none;top=0;left=0;bottom=0;right=0;editable=1;overflow=hidden;whiteSpace=wrap;html=1;" vertex="1" parent="h6lxW0l-rEsgfM09pOZ4-41">
          <mxGeometry width="30" height="30" as="geometry">
            <mxRectangle width="30" height="30" as="alternateBounds" />
          </mxGeometry>
        </mxCell>
        <mxCell id="h6lxW0l-rEsgfM09pOZ4-43" value="idEstilista" style="shape=partialRectangle;connectable=0;fillColor=none;top=0;left=0;bottom=0;right=0;align=left;spacingLeft=6;overflow=hidden;whiteSpace=wrap;html=1;" vertex="1" parent="h6lxW0l-rEsgfM09pOZ4-41">
          <mxGeometry x="30" width="150" height="30" as="geometry">
            <mxRectangle width="150" height="30" as="alternateBounds" />
          </mxGeometry>
        </mxCell>
        <mxCell id="h6lxW0l-rEsgfM09pOZ4-44" value="" style="shape=tableRow;horizontal=0;startSize=0;swimlaneHead=0;swimlaneBody=0;fillColor=none;collapsible=0;dropTarget=0;points=[[0,0.5],[1,0.5]];portConstraint=eastwest;top=0;left=0;right=0;bottom=0;" vertex="1" parent="Y2dzQ53fjyAzNFY5iu_s-104">
          <mxGeometry y="180" width="180" height="30" as="geometry" />
        </mxCell>
        <mxCell id="h6lxW0l-rEsgfM09pOZ4-45" value="Fk" style="shape=partialRectangle;connectable=0;fillColor=none;top=0;left=0;bottom=0;right=0;editable=1;overflow=hidden;whiteSpace=wrap;html=1;" vertex="1" parent="h6lxW0l-rEsgfM09pOZ4-44">
          <mxGeometry width="30" height="30" as="geometry">
            <mxRectangle width="30" height="30" as="alternateBounds" />
          </mxGeometry>
        </mxCell>
        <mxCell id="h6lxW0l-rEsgfM09pOZ4-46" value="idUsuario" style="shape=partialRectangle;connectable=0;fillColor=none;top=0;left=0;bottom=0;right=0;align=left;spacingLeft=6;overflow=hidden;whiteSpace=wrap;html=1;" vertex="1" parent="h6lxW0l-rEsgfM09pOZ4-44">
          <mxGeometry x="30" width="150" height="30" as="geometry">
            <mxRectangle width="150" height="30" as="alternateBounds" />
          </mxGeometry>
        </mxCell>
        <mxCell id="Y2dzQ53fjyAzNFY5iu_s-83" value="Email" style="ellipse;whiteSpace=wrap;html=1;align=center;" vertex="1" parent="1">
          <mxGeometry x="1241" y="600" width="100" height="40" as="geometry" />
        </mxCell>
        <mxCell id="Y2dzQ53fjyAzNFY5iu_s-84" style="rounded=0;orthogonalLoop=1;jettySize=auto;html=1;endArrow=none;endFill=0;" edge="1" parent="1" source="Y2dzQ53fjyAzNFY5iu_s-83" target="jlm8GovE4o78zpknhKyV-17">
          <mxGeometry relative="1" as="geometry" />
        </mxCell>
        <mxCell id="vtw1k_bzy1yQWoYEa-3J-45" value="Calificacion" style="ellipse;whiteSpace=wrap;html=1;align=center;" vertex="1" parent="1">
          <mxGeometry x="1100" y="-410" width="100" height="40" as="geometry" />
        </mxCell>
        <mxCell id="w0OM0NFdh8fNn7_4wQE3-41" value="1:n" style="text;strokeColor=none;fillColor=none;align=left;verticalAlign=middle;spacingLeft=4;spacingRight=4;overflow=hidden;points=[[0,0.5],[1,0.5]];portConstraint=eastwest;rotatable=0;whiteSpace=wrap;html=1;" vertex="1" parent="1">
          <mxGeometry x="1135" y="400" width="30" height="30" as="geometry" />
        </mxCell>
        <mxCell id="eptWDj3NKp6KgpNxHlbf-2" value="nombreServicio" style="ellipse;whiteSpace=wrap;html=1;align=center;" vertex="1" parent="1">
          <mxGeometry x="810.0000000000002" y="560" width="100" height="40" as="geometry" />
        </mxCell>
        <mxCell id="eptWDj3NKp6KgpNxHlbf-4" value="duración" style="ellipse;whiteSpace=wrap;html=1;align=center;" vertex="1" parent="1">
          <mxGeometry x="640.0000000000002" y="572.5" width="100" height="40" as="geometry" />
        </mxCell>
        <mxCell id="eptWDj3NKp6KgpNxHlbf-110" style="edgeStyle=orthogonalEdgeStyle;rounded=0;orthogonalLoop=1;jettySize=auto;html=1;entryX=0.5;entryY=1;entryDx=0;entryDy=0;endArrow=none;endFill=0;" edge="1" parent="1" source="eptWDj3NKp6KgpNxHlbf-107" target="eptWDj3NKp6KgpNxHlbf-109">
          <mxGeometry relative="1" as="geometry" />
        </mxCell>
        <mxCell id="eptWDj3NKp6KgpNxHlbf-107" value="genera" style="shape=rhombus;perimeter=rhombusPerimeter;whiteSpace=wrap;html=1;align=center;" vertex="1" parent="1">
          <mxGeometry x="304" y="290" width="120" height="60" as="geometry" />
        </mxCell>
        <mxCell id="eptWDj3NKp6KgpNxHlbf-141" style="rounded=0;orthogonalLoop=1;jettySize=auto;html=1;endArrow=none;endFill=0;" edge="1" parent="1" source="eptWDj3NKp6KgpNxHlbf-109" target="eptWDj3NKp6KgpNxHlbf-138">
          <mxGeometry relative="1" as="geometry" />
        </mxCell>
        <mxCell id="eo1EWMmAFgm19Zw0DgwI-9" style="edgeStyle=orthogonalEdgeStyle;rounded=0;orthogonalLoop=1;jettySize=auto;html=1;entryX=1;entryY=0.5;entryDx=0;entryDy=0;endArrow=none;endFill=0;" edge="1" parent="1" source="eptWDj3NKp6KgpNxHlbf-109" target="eo1EWMmAFgm19Zw0DgwI-4">
          <mxGeometry relative="1" as="geometry" />
        </mxCell>
        <mxCell id="eptWDj3NKp6KgpNxHlbf-109" value="ventas" style="rounded=1;arcSize=10;whiteSpace=wrap;html=1;align=center;" vertex="1" parent="1">
          <mxGeometry x="314" y="140" width="100" height="40" as="geometry" />
        </mxCell>
        <mxCell id="eptWDj3NKp6KgpNxHlbf-115" value="1:1" style="text;html=1;align=center;verticalAlign=middle;resizable=0;points=[];autosize=1;strokeColor=none;fillColor=none;" vertex="1" parent="1">
          <mxGeometry x="690" y="400" width="40" height="30" as="geometry" />
        </mxCell>
        <mxCell id="eptWDj3NKp6KgpNxHlbf-116" value="1:1" style="text;html=1;align=center;verticalAlign=middle;resizable=0;points=[];autosize=1;strokeColor=none;fillColor=none;" vertex="1" parent="1">
          <mxGeometry x="370" y="378" width="40" height="30" as="geometry" />
        </mxCell>
        <mxCell id="eptWDj3NKp6KgpNxHlbf-117" value="1.1" style="text;html=1;align=center;verticalAlign=middle;resizable=0;points=[];autosize=1;strokeColor=none;fillColor=none;" vertex="1" parent="1">
          <mxGeometry x="360" y="180" width="40" height="30" as="geometry" />
        </mxCell>
        <mxCell id="eptWDj3NKp6KgpNxHlbf-121" value="1:n" style="text;html=1;align=center;verticalAlign=middle;resizable=0;points=[];autosize=1;strokeColor=none;fillColor=none;" vertex="1" parent="1">
          <mxGeometry x="960" y="378" width="40" height="30" as="geometry" />
        </mxCell>
        <mxCell id="eptWDj3NKp6KgpNxHlbf-122" value="1:n" style="text;html=1;align=center;verticalAlign=middle;resizable=0;points=[];autosize=1;strokeColor=none;fillColor=none;" vertex="1" parent="1">
          <mxGeometry x="820" y="398" width="40" height="30" as="geometry" />
        </mxCell>
        <mxCell id="eptWDj3NKp6KgpNxHlbf-126" value="" style="fontSize=12;html=1;endArrow=ERzeroToMany;startArrow=ERmandOne;rounded=0;entryX=0;entryY=0.5;entryDx=0;entryDy=0;exitX=1;exitY=0.5;exitDx=0;exitDy=0;" edge="1" parent="1" source="Y2dzQ53fjyAzNFY5iu_s-14" target="w0OM0NFdh8fNn7_4wQE3-11">
          <mxGeometry width="100" height="100" relative="1" as="geometry">
            <mxPoint x="-220" y="1535" as="sourcePoint" />
            <mxPoint x="-210" y="1375" as="targetPoint" />
          </mxGeometry>
        </mxCell>
        <mxCell id="eptWDj3NKp6KgpNxHlbf-127" value="" style="edgeStyle=entityRelationEdgeStyle;fontSize=12;html=1;endArrow=ERmandOne;startArrow=ERmandOne;rounded=0;exitX=1;exitY=0.5;exitDx=0;exitDy=0;entryX=0;entryY=0.5;entryDx=0;entryDy=0;" edge="1" parent="1" source="Y2dzQ53fjyAzNFY5iu_s-27" target="w0OM0NFdh8fNn7_4wQE3-56">
          <mxGeometry width="100" height="100" relative="1" as="geometry">
            <mxPoint x="440" y="1680" as="sourcePoint" />
            <mxPoint x="540" y="1580" as="targetPoint" />
          </mxGeometry>
        </mxCell>
        <mxCell id="eptWDj3NKp6KgpNxHlbf-131" value="" style="edgeStyle=orthogonalEdgeStyle;fontSize=12;html=1;endArrow=ERzeroToMany;startArrow=ERmandOne;rounded=0;entryX=0.999;entryY=0.667;entryDx=0;entryDy=0;entryPerimeter=0;" edge="1" parent="1" target="w0OM0NFdh8fNn7_4wQE3-46">
          <mxGeometry width="100" height="100" relative="1" as="geometry">
            <mxPoint x="790" y="1540" as="sourcePoint" />
            <mxPoint x="458.96" y="2206" as="targetPoint" />
            <Array as="points">
              <mxPoint x="919" y="1540" />
              <mxPoint x="919" y="2210" />
              <mxPoint x="500" y="2210" />
              <mxPoint x="500" y="2320" />
            </Array>
          </mxGeometry>
        </mxCell>
        <mxCell id="eptWDj3NKp6KgpNxHlbf-136" value="idVenta" style="ellipse;whiteSpace=wrap;html=1;align=center;fontStyle=4;" vertex="1" parent="1">
          <mxGeometry x="195" y="30" width="100" height="40" as="geometry" />
        </mxCell>
        <mxCell id="eptWDj3NKp6KgpNxHlbf-137" value="fecha" style="ellipse;whiteSpace=wrap;html=1;align=center;" vertex="1" parent="1">
          <mxGeometry x="305" width="100" height="40" as="geometry" />
        </mxCell>
        <mxCell id="eptWDj3NKp6KgpNxHlbf-138" value="Total" style="ellipse;whiteSpace=wrap;html=1;align=center;" vertex="1" parent="1">
          <mxGeometry x="430" y="18" width="100" height="40" as="geometry" />
        </mxCell>
        <mxCell id="eptWDj3NKp6KgpNxHlbf-139" style="rounded=0;orthogonalLoop=1;jettySize=auto;html=1;entryX=0.599;entryY=0.97;entryDx=0;entryDy=0;entryPerimeter=0;endArrow=none;endFill=0;" edge="1" parent="1" source="eptWDj3NKp6KgpNxHlbf-109" target="eptWDj3NKp6KgpNxHlbf-136">
          <mxGeometry relative="1" as="geometry" />
        </mxCell>
        <mxCell id="eptWDj3NKp6KgpNxHlbf-140" style="rounded=0;orthogonalLoop=1;jettySize=auto;html=1;entryX=0.656;entryY=1.024;entryDx=0;entryDy=0;entryPerimeter=0;endArrow=none;endFill=0;" edge="1" parent="1" source="eptWDj3NKp6KgpNxHlbf-109" target="eptWDj3NKp6KgpNxHlbf-137">
          <mxGeometry relative="1" as="geometry" />
        </mxCell>
        <mxCell id="eptWDj3NKp6KgpNxHlbf-142" value="ventas" style="shape=table;startSize=30;container=1;collapsible=1;childLayout=tableLayout;fixedRows=1;rowLines=0;fontStyle=1;align=center;resizeLast=1;html=1;" vertex="1" parent="1">
          <mxGeometry x="615" y="1230" width="180" height="150" as="geometry" />
        </mxCell>
        <mxCell id="eptWDj3NKp6KgpNxHlbf-143" value="" style="shape=tableRow;horizontal=0;startSize=0;swimlaneHead=0;swimlaneBody=0;fillColor=none;collapsible=0;dropTarget=0;points=[[0,0.5],[1,0.5]];portConstraint=eastwest;top=0;left=0;right=0;bottom=1;" vertex="1" parent="eptWDj3NKp6KgpNxHlbf-142">
          <mxGeometry y="30" width="180" height="30" as="geometry" />
        </mxCell>
        <mxCell id="eptWDj3NKp6KgpNxHlbf-144" value="PK" style="shape=partialRectangle;connectable=0;fillColor=none;top=0;left=0;bottom=0;right=0;fontStyle=1;overflow=hidden;whiteSpace=wrap;html=1;" vertex="1" parent="eptWDj3NKp6KgpNxHlbf-143">
          <mxGeometry width="30" height="30" as="geometry">
            <mxRectangle width="30" height="30" as="alternateBounds" />
          </mxGeometry>
        </mxCell>
        <mxCell id="eptWDj3NKp6KgpNxHlbf-145" value="idVentas" style="shape=partialRectangle;connectable=0;fillColor=none;top=0;left=0;bottom=0;right=0;align=left;spacingLeft=6;fontStyle=5;overflow=hidden;whiteSpace=wrap;html=1;" vertex="1" parent="eptWDj3NKp6KgpNxHlbf-143">
          <mxGeometry x="30" width="150" height="30" as="geometry">
            <mxRectangle width="150" height="30" as="alternateBounds" />
          </mxGeometry>
        </mxCell>
        <mxCell id="eptWDj3NKp6KgpNxHlbf-146" value="" style="shape=tableRow;horizontal=0;startSize=0;swimlaneHead=0;swimlaneBody=0;fillColor=none;collapsible=0;dropTarget=0;points=[[0,0.5],[1,0.5]];portConstraint=eastwest;top=0;left=0;right=0;bottom=0;" vertex="1" parent="eptWDj3NKp6KgpNxHlbf-142">
          <mxGeometry y="60" width="180" height="30" as="geometry" />
        </mxCell>
        <mxCell id="eptWDj3NKp6KgpNxHlbf-147" value="" style="shape=partialRectangle;connectable=0;fillColor=none;top=0;left=0;bottom=0;right=0;editable=1;overflow=hidden;whiteSpace=wrap;html=1;" vertex="1" parent="eptWDj3NKp6KgpNxHlbf-146">
          <mxGeometry width="30" height="30" as="geometry">
            <mxRectangle width="30" height="30" as="alternateBounds" />
          </mxGeometry>
        </mxCell>
        <mxCell id="eptWDj3NKp6KgpNxHlbf-148" value="Fecha" style="shape=partialRectangle;connectable=0;fillColor=none;top=0;left=0;bottom=0;right=0;align=left;spacingLeft=6;overflow=hidden;whiteSpace=wrap;html=1;" vertex="1" parent="eptWDj3NKp6KgpNxHlbf-146">
          <mxGeometry x="30" width="150" height="30" as="geometry">
            <mxRectangle width="150" height="30" as="alternateBounds" />
          </mxGeometry>
        </mxCell>
        <mxCell id="eptWDj3NKp6KgpNxHlbf-149" value="" style="shape=tableRow;horizontal=0;startSize=0;swimlaneHead=0;swimlaneBody=0;fillColor=none;collapsible=0;dropTarget=0;points=[[0,0.5],[1,0.5]];portConstraint=eastwest;top=0;left=0;right=0;bottom=0;" vertex="1" parent="eptWDj3NKp6KgpNxHlbf-142">
          <mxGeometry y="90" width="180" height="30" as="geometry" />
        </mxCell>
        <mxCell id="eptWDj3NKp6KgpNxHlbf-150" value="" style="shape=partialRectangle;connectable=0;fillColor=none;top=0;left=0;bottom=0;right=0;editable=1;overflow=hidden;whiteSpace=wrap;html=1;" vertex="1" parent="eptWDj3NKp6KgpNxHlbf-149">
          <mxGeometry width="30" height="30" as="geometry">
            <mxRectangle width="30" height="30" as="alternateBounds" />
          </mxGeometry>
        </mxCell>
        <mxCell id="eptWDj3NKp6KgpNxHlbf-151" value="Total" style="shape=partialRectangle;connectable=0;fillColor=none;top=0;left=0;bottom=0;right=0;align=left;spacingLeft=6;overflow=hidden;whiteSpace=wrap;html=1;" vertex="1" parent="eptWDj3NKp6KgpNxHlbf-149">
          <mxGeometry x="30" width="150" height="30" as="geometry">
            <mxRectangle width="150" height="30" as="alternateBounds" />
          </mxGeometry>
        </mxCell>
        <mxCell id="eptWDj3NKp6KgpNxHlbf-152" value="" style="shape=tableRow;horizontal=0;startSize=0;swimlaneHead=0;swimlaneBody=0;fillColor=none;collapsible=0;dropTarget=0;points=[[0,0.5],[1,0.5]];portConstraint=eastwest;top=0;left=0;right=0;bottom=0;" vertex="1" parent="eptWDj3NKp6KgpNxHlbf-142">
          <mxGeometry y="120" width="180" height="30" as="geometry" />
        </mxCell>
        <mxCell id="eptWDj3NKp6KgpNxHlbf-153" value="FK" style="shape=partialRectangle;connectable=0;fillColor=none;top=0;left=0;bottom=0;right=0;editable=1;overflow=hidden;whiteSpace=wrap;html=1;" vertex="1" parent="eptWDj3NKp6KgpNxHlbf-152">
          <mxGeometry width="30" height="30" as="geometry">
            <mxRectangle width="30" height="30" as="alternateBounds" />
          </mxGeometry>
        </mxCell>
        <mxCell id="eptWDj3NKp6KgpNxHlbf-154" value="idReserva" style="shape=partialRectangle;connectable=0;fillColor=none;top=0;left=0;bottom=0;right=0;align=left;spacingLeft=6;overflow=hidden;whiteSpace=wrap;html=1;" vertex="1" parent="eptWDj3NKp6KgpNxHlbf-152">
          <mxGeometry x="30" width="150" height="30" as="geometry">
            <mxRectangle width="150" height="30" as="alternateBounds" />
          </mxGeometry>
        </mxCell>
        <mxCell id="eptWDj3NKp6KgpNxHlbf-168" value="" style="edgeStyle=orthogonalEdgeStyle;fontSize=12;html=1;endArrow=ERmandOne;startArrow=ERmandOne;rounded=0;exitX=0;exitY=0.5;exitDx=0;exitDy=0;entryX=0;entryY=0.5;entryDx=0;entryDy=0;" edge="1" parent="1" source="Y2dzQ53fjyAzNFY5iu_s-27" target="eptWDj3NKp6KgpNxHlbf-152">
          <mxGeometry width="100" height="100" relative="1" as="geometry">
            <mxPoint x="540" y="1550" as="sourcePoint" />
            <mxPoint x="640" y="1450" as="targetPoint" />
            <Array as="points">
              <mxPoint x="140" y="1540" />
              <mxPoint x="140" y="1365" />
            </Array>
          </mxGeometry>
        </mxCell>
        <mxCell id="eo1EWMmAFgm19Zw0DgwI-3" style="edgeStyle=orthogonalEdgeStyle;rounded=0;orthogonalLoop=1;jettySize=auto;html=1;endArrow=none;endFill=0;" edge="1" parent="1" source="eo1EWMmAFgm19Zw0DgwI-1" target="jlm8GovE4o78zpknhKyV-19">
          <mxGeometry relative="1" as="geometry" />
        </mxCell>
        <mxCell id="eo1EWMmAFgm19Zw0DgwI-1" value="recibe" style="shape=rhombus;perimeter=rhombusPerimeter;whiteSpace=wrap;html=1;align=center;" vertex="1" parent="1">
          <mxGeometry x="1000" y="245" width="120" height="60" as="geometry" />
        </mxCell>
        <mxCell id="eo1EWMmAFgm19Zw0DgwI-8" style="edgeStyle=orthogonalEdgeStyle;rounded=0;orthogonalLoop=1;jettySize=auto;html=1;endArrow=none;endFill=0;entryX=1;entryY=0.5;entryDx=0;entryDy=0;" edge="1" parent="1" source="eo1EWMmAFgm19Zw0DgwI-4" target="eo1EWMmAFgm19Zw0DgwI-5">
          <mxGeometry relative="1" as="geometry">
            <mxPoint x="60" y="160" as="targetPoint" />
          </mxGeometry>
        </mxCell>
        <mxCell id="eo1EWMmAFgm19Zw0DgwI-4" value="genera" style="shape=rhombus;perimeter=rhombusPerimeter;whiteSpace=wrap;html=1;align=center;" vertex="1" parent="1">
          <mxGeometry x="120" y="130" width="120" height="60" as="geometry" />
        </mxCell>
        <mxCell id="eo1EWMmAFgm19Zw0DgwI-13" style="rounded=0;orthogonalLoop=1;jettySize=auto;html=1;entryX=0.5;entryY=1;entryDx=0;entryDy=0;endArrow=none;endFill=0;" edge="1" parent="1" source="eo1EWMmAFgm19Zw0DgwI-5" target="eo1EWMmAFgm19Zw0DgwI-10">
          <mxGeometry relative="1" as="geometry" />
        </mxCell>
        <mxCell id="eo1EWMmAFgm19Zw0DgwI-14" style="rounded=0;orthogonalLoop=1;jettySize=auto;html=1;entryX=0.5;entryY=1;entryDx=0;entryDy=0;endArrow=none;endFill=0;" edge="1" parent="1" source="eo1EWMmAFgm19Zw0DgwI-5" target="eo1EWMmAFgm19Zw0DgwI-11">
          <mxGeometry relative="1" as="geometry" />
        </mxCell>
        <mxCell id="eo1EWMmAFgm19Zw0DgwI-15" style="rounded=0;orthogonalLoop=1;jettySize=auto;html=1;entryX=0.5;entryY=1;entryDx=0;entryDy=0;endArrow=none;endFill=0;" edge="1" parent="1" source="eo1EWMmAFgm19Zw0DgwI-5" target="eo1EWMmAFgm19Zw0DgwI-12">
          <mxGeometry relative="1" as="geometry" />
        </mxCell>
        <mxCell id="eo1EWMmAFgm19Zw0DgwI-5" value="detallesVentas" style="rounded=1;arcSize=10;whiteSpace=wrap;html=1;align=center;" vertex="1" parent="1">
          <mxGeometry x="-60" y="140" width="100" height="40" as="geometry" />
        </mxCell>
        <mxCell id="eo1EWMmAFgm19Zw0DgwI-10" value="id" style="ellipse;whiteSpace=wrap;html=1;align=center;fontStyle=4;" vertex="1" parent="1">
          <mxGeometry x="-160" y="50" width="100" height="40" as="geometry" />
        </mxCell>
        <mxCell id="eo1EWMmAFgm19Zw0DgwI-11" value="subtotal" style="ellipse;whiteSpace=wrap;html=1;align=center;" vertex="1" parent="1">
          <mxGeometry x="-60" y="10" width="100" height="40" as="geometry" />
        </mxCell>
        <mxCell id="eo1EWMmAFgm19Zw0DgwI-12" value="cantidad&amp;nbsp;" style="ellipse;whiteSpace=wrap;html=1;align=center;" vertex="1" parent="1">
          <mxGeometry x="35" y="40" width="100" height="40" as="geometry" />
        </mxCell>
        <mxCell id="eo1EWMmAFgm19Zw0DgwI-16" value="1:1" style="text;html=1;align=center;verticalAlign=middle;resizable=0;points=[];autosize=1;strokeColor=none;fillColor=none;" vertex="1" parent="1">
          <mxGeometry x="280" y="128" width="40" height="30" as="geometry" />
        </mxCell>
        <mxCell id="eo1EWMmAFgm19Zw0DgwI-17" value="1:1" style="text;html=1;align=center;verticalAlign=middle;resizable=0;points=[];autosize=1;strokeColor=none;fillColor=none;" vertex="1" parent="1">
          <mxGeometry x="160" y="98" width="40" height="30" as="geometry" />
        </mxCell>
        <mxCell id="eo1EWMmAFgm19Zw0DgwI-18" value="1.1" style="text;html=1;align=center;verticalAlign=middle;resizable=0;points=[];autosize=1;strokeColor=none;fillColor=none;" vertex="1" parent="1">
          <mxGeometry x="50" y="128" width="40" height="30" as="geometry" />
        </mxCell>
        <mxCell id="eo1EWMmAFgm19Zw0DgwI-19" value="detallesVenta" style="shape=table;startSize=30;container=1;collapsible=1;childLayout=tableLayout;fixedRows=1;rowLines=0;fontStyle=1;align=center;resizeLast=1;html=1;" vertex="1" parent="1">
          <mxGeometry x="930" y="1230" width="180" height="150" as="geometry" />
        </mxCell>
        <mxCell id="eo1EWMmAFgm19Zw0DgwI-20" value="" style="shape=tableRow;horizontal=0;startSize=0;swimlaneHead=0;swimlaneBody=0;fillColor=none;collapsible=0;dropTarget=0;points=[[0,0.5],[1,0.5]];portConstraint=eastwest;top=0;left=0;right=0;bottom=1;" vertex="1" parent="eo1EWMmAFgm19Zw0DgwI-19">
          <mxGeometry y="30" width="180" height="30" as="geometry" />
        </mxCell>
        <mxCell id="eo1EWMmAFgm19Zw0DgwI-21" value="PK" style="shape=partialRectangle;connectable=0;fillColor=none;top=0;left=0;bottom=0;right=0;fontStyle=1;overflow=hidden;whiteSpace=wrap;html=1;" vertex="1" parent="eo1EWMmAFgm19Zw0DgwI-20">
          <mxGeometry width="30" height="30" as="geometry">
            <mxRectangle width="30" height="30" as="alternateBounds" />
          </mxGeometry>
        </mxCell>
        <mxCell id="eo1EWMmAFgm19Zw0DgwI-22" value="id" style="shape=partialRectangle;connectable=0;fillColor=none;top=0;left=0;bottom=0;right=0;align=left;spacingLeft=6;fontStyle=5;overflow=hidden;whiteSpace=wrap;html=1;" vertex="1" parent="eo1EWMmAFgm19Zw0DgwI-20">
          <mxGeometry x="30" width="150" height="30" as="geometry">
            <mxRectangle width="150" height="30" as="alternateBounds" />
          </mxGeometry>
        </mxCell>
        <mxCell id="eo1EWMmAFgm19Zw0DgwI-23" value="" style="shape=tableRow;horizontal=0;startSize=0;swimlaneHead=0;swimlaneBody=0;fillColor=none;collapsible=0;dropTarget=0;points=[[0,0.5],[1,0.5]];portConstraint=eastwest;top=0;left=0;right=0;bottom=0;" vertex="1" parent="eo1EWMmAFgm19Zw0DgwI-19">
          <mxGeometry y="60" width="180" height="30" as="geometry" />
        </mxCell>
        <mxCell id="eo1EWMmAFgm19Zw0DgwI-24" value="" style="shape=partialRectangle;connectable=0;fillColor=none;top=0;left=0;bottom=0;right=0;editable=1;overflow=hidden;whiteSpace=wrap;html=1;" vertex="1" parent="eo1EWMmAFgm19Zw0DgwI-23">
          <mxGeometry width="30" height="30" as="geometry">
            <mxRectangle width="30" height="30" as="alternateBounds" />
          </mxGeometry>
        </mxCell>
        <mxCell id="eo1EWMmAFgm19Zw0DgwI-25" value="subtotal" style="shape=partialRectangle;connectable=0;fillColor=none;top=0;left=0;bottom=0;right=0;align=left;spacingLeft=6;overflow=hidden;whiteSpace=wrap;html=1;" vertex="1" parent="eo1EWMmAFgm19Zw0DgwI-23">
          <mxGeometry x="30" width="150" height="30" as="geometry">
            <mxRectangle width="150" height="30" as="alternateBounds" />
          </mxGeometry>
        </mxCell>
        <mxCell id="eo1EWMmAFgm19Zw0DgwI-26" value="" style="shape=tableRow;horizontal=0;startSize=0;swimlaneHead=0;swimlaneBody=0;fillColor=none;collapsible=0;dropTarget=0;points=[[0,0.5],[1,0.5]];portConstraint=eastwest;top=0;left=0;right=0;bottom=0;" vertex="1" parent="eo1EWMmAFgm19Zw0DgwI-19">
          <mxGeometry y="90" width="180" height="30" as="geometry" />
        </mxCell>
        <mxCell id="eo1EWMmAFgm19Zw0DgwI-27" value="" style="shape=partialRectangle;connectable=0;fillColor=none;top=0;left=0;bottom=0;right=0;editable=1;overflow=hidden;whiteSpace=wrap;html=1;" vertex="1" parent="eo1EWMmAFgm19Zw0DgwI-26">
          <mxGeometry width="30" height="30" as="geometry">
            <mxRectangle width="30" height="30" as="alternateBounds" />
          </mxGeometry>
        </mxCell>
        <mxCell id="eo1EWMmAFgm19Zw0DgwI-28" value="cantidad" style="shape=partialRectangle;connectable=0;fillColor=none;top=0;left=0;bottom=0;right=0;align=left;spacingLeft=6;overflow=hidden;whiteSpace=wrap;html=1;" vertex="1" parent="eo1EWMmAFgm19Zw0DgwI-26">
          <mxGeometry x="30" width="150" height="30" as="geometry">
            <mxRectangle width="150" height="30" as="alternateBounds" />
          </mxGeometry>
        </mxCell>
        <mxCell id="eo1EWMmAFgm19Zw0DgwI-29" value="" style="shape=tableRow;horizontal=0;startSize=0;swimlaneHead=0;swimlaneBody=0;fillColor=none;collapsible=0;dropTarget=0;points=[[0,0.5],[1,0.5]];portConstraint=eastwest;top=0;left=0;right=0;bottom=0;" vertex="1" parent="eo1EWMmAFgm19Zw0DgwI-19">
          <mxGeometry y="120" width="180" height="30" as="geometry" />
        </mxCell>
        <mxCell id="eo1EWMmAFgm19Zw0DgwI-30" value="FK" style="shape=partialRectangle;connectable=0;fillColor=none;top=0;left=0;bottom=0;right=0;editable=1;overflow=hidden;whiteSpace=wrap;html=1;" vertex="1" parent="eo1EWMmAFgm19Zw0DgwI-29">
          <mxGeometry width="30" height="30" as="geometry">
            <mxRectangle width="30" height="30" as="alternateBounds" />
          </mxGeometry>
        </mxCell>
        <mxCell id="eo1EWMmAFgm19Zw0DgwI-31" value="idVenta" style="shape=partialRectangle;connectable=0;fillColor=none;top=0;left=0;bottom=0;right=0;align=left;spacingLeft=6;overflow=hidden;whiteSpace=wrap;html=1;" vertex="1" parent="eo1EWMmAFgm19Zw0DgwI-29">
          <mxGeometry x="30" width="150" height="30" as="geometry">
            <mxRectangle width="150" height="30" as="alternateBounds" />
          </mxGeometry>
        </mxCell>
        <mxCell id="eo1EWMmAFgm19Zw0DgwI-32" value="" style="fontSize=12;html=1;endArrow=ERmandOne;startArrow=ERmandOne;rounded=0;exitX=0;exitY=0.5;exitDx=0;exitDy=0;entryX=1;entryY=0.5;entryDx=0;entryDy=0;edgeStyle=entityRelationEdgeStyle;" edge="1" parent="1" source="eo1EWMmAFgm19Zw0DgwI-29" target="eptWDj3NKp6KgpNxHlbf-143">
          <mxGeometry width="100" height="100" relative="1" as="geometry">
            <mxPoint x="620" y="1550" as="sourcePoint" />
            <mxPoint x="625" y="1375" as="targetPoint" />
          </mxGeometry>
        </mxCell>
        <mxCell id="eo1EWMmAFgm19Zw0DgwI-37" value="0:n" style="text;html=1;align=center;verticalAlign=middle;resizable=0;points=[];autosize=1;strokeColor=none;fillColor=none;" vertex="1" parent="1">
          <mxGeometry x="740" y="378" width="40" height="30" as="geometry" />
        </mxCell>
        <mxCell id="eo1EWMmAFgm19Zw0DgwI-39" value="0:n" style="text;html=1;align=center;verticalAlign=middle;resizable=0;points=[];autosize=1;strokeColor=none;fillColor=none;" vertex="1" parent="1">
          <mxGeometry x="1110" y="260" width="40" height="30" as="geometry" />
        </mxCell>
        <mxCell id="eo1EWMmAFgm19Zw0DgwI-40" value="0:n" style="text;html=1;align=center;verticalAlign=middle;resizable=0;points=[];autosize=1;strokeColor=none;fillColor=none;" vertex="1" parent="1">
          <mxGeometry x="1020" y="-170" width="40" height="30" as="geometry" />
        </mxCell>
        <mxCell id="eo1EWMmAFgm19Zw0DgwI-42" value="tiene" style="shape=rhombus;perimeter=rhombusPerimeter;whiteSpace=wrap;html=1;align=center;" vertex="1" parent="1">
          <mxGeometry x="-120" y="730" width="120" height="60" as="geometry" />
        </mxCell>
        <mxCell id="eo1EWMmAFgm19Zw0DgwI-44" style="edgeStyle=orthogonalEdgeStyle;rounded=0;orthogonalLoop=1;jettySize=auto;html=1;entryX=1;entryY=0.5;entryDx=0;entryDy=0;endArrow=none;endFill=0;" edge="1" parent="1" source="eo1EWMmAFgm19Zw0DgwI-43" target="eo1EWMmAFgm19Zw0DgwI-42">
          <mxGeometry relative="1" as="geometry" />
        </mxCell>
        <mxCell id="Mu4hMx2b1AOe4aTeyVQP-27" style="rounded=0;orthogonalLoop=1;jettySize=auto;html=1;entryX=0;entryY=0.5;entryDx=0;entryDy=0;endArrow=none;endFill=0;" edge="1" parent="1" source="eo1EWMmAFgm19Zw0DgwI-43" target="Mu4hMx2b1AOe4aTeyVQP-25">
          <mxGeometry relative="1" as="geometry" />
        </mxCell>
        <mxCell id="Mu4hMx2b1AOe4aTeyVQP-28" style="rounded=0;orthogonalLoop=1;jettySize=auto;html=1;entryX=0;entryY=0.5;entryDx=0;entryDy=0;endArrow=none;endFill=0;" edge="1" parent="1" source="eo1EWMmAFgm19Zw0DgwI-43" target="Mu4hMx2b1AOe4aTeyVQP-26">
          <mxGeometry relative="1" as="geometry" />
        </mxCell>
        <mxCell id="eo1EWMmAFgm19Zw0DgwI-43" value="rol" style="rounded=1;arcSize=10;whiteSpace=wrap;html=1;align=center;" vertex="1" parent="1">
          <mxGeometry x="150" y="740" width="100" height="40" as="geometry" />
        </mxCell>
        <mxCell id="Mu4hMx2b1AOe4aTeyVQP-4" value="Rol" style="shape=table;startSize=30;container=1;collapsible=1;childLayout=tableLayout;fixedRows=1;rowLines=0;fontStyle=1;align=center;resizeLast=1;html=1;" vertex="1" parent="1">
          <mxGeometry x="-230" y="1840" width="180" height="90" as="geometry">
            <mxRectangle x="-490" y="1550" width="60" height="30" as="alternateBounds" />
          </mxGeometry>
        </mxCell>
        <mxCell id="Mu4hMx2b1AOe4aTeyVQP-5" value="" style="shape=tableRow;horizontal=0;startSize=0;swimlaneHead=0;swimlaneBody=0;fillColor=none;collapsible=0;dropTarget=0;points=[[0,0.5],[1,0.5]];portConstraint=eastwest;top=0;left=0;right=0;bottom=1;" vertex="1" parent="Mu4hMx2b1AOe4aTeyVQP-4">
          <mxGeometry y="30" width="180" height="30" as="geometry" />
        </mxCell>
        <mxCell id="Mu4hMx2b1AOe4aTeyVQP-6" value="PK" style="shape=partialRectangle;connectable=0;fillColor=none;top=0;left=0;bottom=0;right=0;fontStyle=1;overflow=hidden;whiteSpace=wrap;html=1;" vertex="1" parent="Mu4hMx2b1AOe4aTeyVQP-5">
          <mxGeometry width="30" height="30" as="geometry">
            <mxRectangle width="30" height="30" as="alternateBounds" />
          </mxGeometry>
        </mxCell>
        <mxCell id="Mu4hMx2b1AOe4aTeyVQP-7" value="idRol" style="shape=partialRectangle;connectable=0;fillColor=none;top=0;left=0;bottom=0;right=0;align=left;spacingLeft=6;fontStyle=5;overflow=hidden;whiteSpace=wrap;html=1;" vertex="1" parent="Mu4hMx2b1AOe4aTeyVQP-5">
          <mxGeometry x="30" width="150" height="30" as="geometry">
            <mxRectangle width="150" height="30" as="alternateBounds" />
          </mxGeometry>
        </mxCell>
        <mxCell id="Mu4hMx2b1AOe4aTeyVQP-8" value="" style="shape=tableRow;horizontal=0;startSize=0;swimlaneHead=0;swimlaneBody=0;fillColor=none;collapsible=0;dropTarget=0;points=[[0,0.5],[1,0.5]];portConstraint=eastwest;top=0;left=0;right=0;bottom=0;" vertex="1" parent="Mu4hMx2b1AOe4aTeyVQP-4">
          <mxGeometry y="60" width="180" height="30" as="geometry" />
        </mxCell>
        <mxCell id="Mu4hMx2b1AOe4aTeyVQP-9" value="" style="shape=partialRectangle;connectable=0;fillColor=none;top=0;left=0;bottom=0;right=0;editable=1;overflow=hidden;whiteSpace=wrap;html=1;" vertex="1" parent="Mu4hMx2b1AOe4aTeyVQP-8">
          <mxGeometry width="30" height="30" as="geometry">
            <mxRectangle width="30" height="30" as="alternateBounds" />
          </mxGeometry>
        </mxCell>
        <mxCell id="Mu4hMx2b1AOe4aTeyVQP-10" value="nombreRol" style="shape=partialRectangle;connectable=0;fillColor=none;top=0;left=0;bottom=0;right=0;align=left;spacingLeft=6;overflow=hidden;whiteSpace=wrap;html=1;" vertex="1" parent="Mu4hMx2b1AOe4aTeyVQP-8">
          <mxGeometry x="30" width="150" height="30" as="geometry">
            <mxRectangle width="150" height="30" as="alternateBounds" />
          </mxGeometry>
        </mxCell>
        <mxCell id="Mu4hMx2b1AOe4aTeyVQP-21" value="" style="edgeStyle=orthogonalEdgeStyle;fontSize=12;html=1;endArrow=ERzeroToMany;endFill=1;rounded=0;exitX=0;exitY=0.5;exitDx=0;exitDy=0;entryX=0;entryY=0.5;entryDx=0;entryDy=0;" edge="1" parent="1" source="Y2dzQ53fjyAzNFY5iu_s-105" target="Mu4hMx2b1AOe4aTeyVQP-18">
          <mxGeometry width="100" height="100" relative="1" as="geometry">
            <mxPoint x="380" y="1480" as="sourcePoint" />
            <mxPoint x="480" y="1380" as="targetPoint" />
            <Array as="points">
              <mxPoint x="-670" y="945" />
              <mxPoint x="-670" y="2030" />
              <mxPoint x="550" y="2030" />
              <mxPoint x="550" y="1720" />
            </Array>
          </mxGeometry>
        </mxCell>
        <mxCell id="Mu4hMx2b1AOe4aTeyVQP-22" value="1:1" style="text;html=1;align=center;verticalAlign=middle;resizable=0;points=[];autosize=1;strokeColor=none;fillColor=none;" vertex="1" parent="1">
          <mxGeometry x="-90" y="470" width="40" height="30" as="geometry" />
        </mxCell>
        <mxCell id="Mu4hMx2b1AOe4aTeyVQP-23" value="1:1" style="text;html=1;align=center;verticalAlign=middle;resizable=0;points=[];autosize=1;strokeColor=none;fillColor=none;" vertex="1" parent="1">
          <mxGeometry x="-80" y="788" width="40" height="30" as="geometry" />
        </mxCell>
        <mxCell id="Mu4hMx2b1AOe4aTeyVQP-24" value="1:1" style="text;html=1;align=center;verticalAlign=middle;resizable=0;points=[];autosize=1;strokeColor=none;fillColor=none;" vertex="1" parent="1">
          <mxGeometry x="110" y="758" width="40" height="30" as="geometry" />
        </mxCell>
        <mxCell id="Mu4hMx2b1AOe4aTeyVQP-25" value="idRol" style="ellipse;whiteSpace=wrap;html=1;align=center;fontStyle=4;" vertex="1" parent="1">
          <mxGeometry x="290" y="670" width="100" height="40" as="geometry" />
        </mxCell>
        <mxCell id="Mu4hMx2b1AOe4aTeyVQP-26" value="nombreRol" style="ellipse;whiteSpace=wrap;html=1;align=center;" vertex="1" parent="1">
          <mxGeometry x="300" y="788" width="100" height="40" as="geometry" />
        </mxCell>
        <mxCell id="Mu4hMx2b1AOe4aTeyVQP-29" value="" style="edgeStyle=orthogonalEdgeStyle;fontSize=12;html=1;endArrow=ERmandOne;startArrow=ERmandOne;rounded=0;entryX=0;entryY=0.5;entryDx=0;entryDy=0;exitX=0;exitY=0.5;exitDx=0;exitDy=0;" edge="1" parent="1" source="Mu4hMx2b1AOe4aTeyVQP-8" target="eptWDj3NKp6KgpNxHlbf-132">
          <mxGeometry width="100" height="100" relative="1" as="geometry">
            <mxPoint x="-320" y="1950" as="sourcePoint" />
            <mxPoint x="-220" y="1850" as="targetPoint" />
            <Array as="points">
              <mxPoint x="-280" y="1915" />
              <mxPoint x="-280" y="1705" />
            </Array>
          </mxGeometry>
        </mxCell>
        <mxCell id="wcmmt33frvv2okJKJXwi-1" style="edgeStyle=orthogonalEdgeStyle;rounded=0;orthogonalLoop=1;jettySize=auto;html=1;entryX=0;entryY=0.25;entryDx=0;entryDy=0;endArrow=none;endFill=0;" edge="1" parent="1" source="Mu4hMx2b1AOe4aTeyVQP-39" target="Mu4hMx2b1AOe4aTeyVQP-41">
          <mxGeometry relative="1" as="geometry">
            <Array as="points">
              <mxPoint x="660" y="160" />
            </Array>
          </mxGeometry>
        </mxCell>
        <mxCell id="wcmmt33frvv2okJKJXwi-3" style="edgeStyle=orthogonalEdgeStyle;rounded=0;orthogonalLoop=1;jettySize=auto;html=1;entryX=1;entryY=0.5;entryDx=0;entryDy=0;endArrow=none;endFill=0;" edge="1" parent="1" source="Mu4hMx2b1AOe4aTeyVQP-39" target="eptWDj3NKp6KgpNxHlbf-109">
          <mxGeometry relative="1" as="geometry" />
        </mxCell>
        <mxCell id="Mu4hMx2b1AOe4aTeyVQP-39" value="actualiza" style="shape=rhombus;perimeter=rhombusPerimeter;whiteSpace=wrap;html=1;align=center;" vertex="1" parent="1">
          <mxGeometry x="480" y="130" width="120" height="60" as="geometry" />
        </mxCell>
        <mxCell id="Mu4hMx2b1AOe4aTeyVQP-40" style="rounded=0;orthogonalLoop=1;jettySize=auto;html=1;entryX=0.5;entryY=1;entryDx=0;entryDy=0;endArrow=none;endFill=0;" edge="1" parent="1" source="Mu4hMx2b1AOe4aTeyVQP-41" target="Mu4hMx2b1AOe4aTeyVQP-42">
          <mxGeometry relative="1" as="geometry" />
        </mxCell>
        <mxCell id="h6lxW0l-rEsgfM09pOZ4-7" style="rounded=0;orthogonalLoop=1;jettySize=auto;html=1;entryX=0.5;entryY=1;entryDx=0;entryDy=0;endArrow=none;endFill=0;" edge="1" parent="1" source="Mu4hMx2b1AOe4aTeyVQP-41" target="h6lxW0l-rEsgfM09pOZ4-5">
          <mxGeometry relative="1" as="geometry" />
        </mxCell>
        <mxCell id="h6lxW0l-rEsgfM09pOZ4-8" style="rounded=0;orthogonalLoop=1;jettySize=auto;html=1;endArrow=none;endFill=0;" edge="1" parent="1" source="Mu4hMx2b1AOe4aTeyVQP-41" target="h6lxW0l-rEsgfM09pOZ4-4">
          <mxGeometry relative="1" as="geometry" />
        </mxCell>
        <mxCell id="h6lxW0l-rEsgfM09pOZ4-9" style="rounded=0;orthogonalLoop=1;jettySize=auto;html=1;endArrow=none;endFill=0;" edge="1" parent="1" source="Mu4hMx2b1AOe4aTeyVQP-41" target="h6lxW0l-rEsgfM09pOZ4-6">
          <mxGeometry relative="1" as="geometry" />
        </mxCell>
        <mxCell id="Mu4hMx2b1AOe4aTeyVQP-41" value="inventario" style="rounded=1;arcSize=10;whiteSpace=wrap;html=1;align=center;" vertex="1" parent="1">
          <mxGeometry x="660.0000000000002" y="140" width="100" height="40" as="geometry" />
        </mxCell>
        <mxCell id="Mu4hMx2b1AOe4aTeyVQP-42" value="idInventario" style="ellipse;whiteSpace=wrap;html=1;align=center;fontStyle=4;" vertex="1" parent="1">
          <mxGeometry x="560" y="58" width="100" height="40" as="geometry" />
        </mxCell>
        <mxCell id="Mu4hMx2b1AOe4aTeyVQP-43" value="Stock" style="ellipse;whiteSpace=wrap;html=1;align=center;" vertex="1" parent="1">
          <mxGeometry x="600" y="-10" width="100" height="40" as="geometry" />
        </mxCell>
        <mxCell id="Mu4hMx2b1AOe4aTeyVQP-44" style="rounded=0;orthogonalLoop=1;jettySize=auto;html=1;entryX=0.56;entryY=1.01;entryDx=0;entryDy=0;entryPerimeter=0;endArrow=none;endFill=0;" edge="1" parent="1" source="Mu4hMx2b1AOe4aTeyVQP-41" target="Mu4hMx2b1AOe4aTeyVQP-43">
          <mxGeometry relative="1" as="geometry" />
        </mxCell>
        <mxCell id="Mu4hMx2b1AOe4aTeyVQP-47" value="1:1" style="text;html=1;align=center;verticalAlign=middle;resizable=0;points=[];autosize=1;strokeColor=none;fillColor=none;" vertex="1" parent="1">
          <mxGeometry x="405" y="140" width="40" height="30" as="geometry" />
        </mxCell>
        <mxCell id="Mu4hMx2b1AOe4aTeyVQP-48" value="1:1" style="text;html=1;align=center;verticalAlign=middle;resizable=0;points=[];autosize=1;strokeColor=none;fillColor=none;" vertex="1" parent="1">
          <mxGeometry x="630" y="140" width="40" height="30" as="geometry" />
        </mxCell>
        <mxCell id="Mu4hMx2b1AOe4aTeyVQP-49" value="Inventario" style="shape=table;startSize=30;container=1;collapsible=1;childLayout=tableLayout;fixedRows=1;rowLines=0;fontStyle=1;align=center;resizeLast=1;html=1;" vertex="1" parent="1">
          <mxGeometry x="305" y="1040" width="180" height="210" as="geometry">
            <mxRectangle x="-490" y="1550" width="60" height="30" as="alternateBounds" />
          </mxGeometry>
        </mxCell>
        <mxCell id="Mu4hMx2b1AOe4aTeyVQP-50" value="" style="shape=tableRow;horizontal=0;startSize=0;swimlaneHead=0;swimlaneBody=0;fillColor=none;collapsible=0;dropTarget=0;points=[[0,0.5],[1,0.5]];portConstraint=eastwest;top=0;left=0;right=0;bottom=1;" vertex="1" parent="Mu4hMx2b1AOe4aTeyVQP-49">
          <mxGeometry y="30" width="180" height="30" as="geometry" />
        </mxCell>
        <mxCell id="Mu4hMx2b1AOe4aTeyVQP-51" value="PK" style="shape=partialRectangle;connectable=0;fillColor=none;top=0;left=0;bottom=0;right=0;fontStyle=1;overflow=hidden;whiteSpace=wrap;html=1;" vertex="1" parent="Mu4hMx2b1AOe4aTeyVQP-50">
          <mxGeometry width="30" height="30" as="geometry">
            <mxRectangle width="30" height="30" as="alternateBounds" />
          </mxGeometry>
        </mxCell>
        <mxCell id="Mu4hMx2b1AOe4aTeyVQP-52" value="idRol" style="shape=partialRectangle;connectable=0;fillColor=none;top=0;left=0;bottom=0;right=0;align=left;spacingLeft=6;fontStyle=5;overflow=hidden;whiteSpace=wrap;html=1;" vertex="1" parent="Mu4hMx2b1AOe4aTeyVQP-50">
          <mxGeometry x="30" width="150" height="30" as="geometry">
            <mxRectangle width="150" height="30" as="alternateBounds" />
          </mxGeometry>
        </mxCell>
        <mxCell id="Mu4hMx2b1AOe4aTeyVQP-53" value="" style="shape=tableRow;horizontal=0;startSize=0;swimlaneHead=0;swimlaneBody=0;fillColor=none;collapsible=0;dropTarget=0;points=[[0,0.5],[1,0.5]];portConstraint=eastwest;top=0;left=0;right=0;bottom=0;" vertex="1" parent="Mu4hMx2b1AOe4aTeyVQP-49">
          <mxGeometry y="60" width="180" height="30" as="geometry" />
        </mxCell>
        <mxCell id="Mu4hMx2b1AOe4aTeyVQP-54" value="" style="shape=partialRectangle;connectable=0;fillColor=none;top=0;left=0;bottom=0;right=0;editable=1;overflow=hidden;whiteSpace=wrap;html=1;" vertex="1" parent="Mu4hMx2b1AOe4aTeyVQP-53">
          <mxGeometry width="30" height="30" as="geometry">
            <mxRectangle width="30" height="30" as="alternateBounds" />
          </mxGeometry>
        </mxCell>
        <mxCell id="Mu4hMx2b1AOe4aTeyVQP-55" value="Stock" style="shape=partialRectangle;connectable=0;fillColor=none;top=0;left=0;bottom=0;right=0;align=left;spacingLeft=6;overflow=hidden;whiteSpace=wrap;html=1;" vertex="1" parent="Mu4hMx2b1AOe4aTeyVQP-53">
          <mxGeometry x="30" width="150" height="30" as="geometry">
            <mxRectangle width="150" height="30" as="alternateBounds" />
          </mxGeometry>
        </mxCell>
        <mxCell id="h6lxW0l-rEsgfM09pOZ4-14" value="" style="shape=tableRow;horizontal=0;startSize=0;swimlaneHead=0;swimlaneBody=0;fillColor=none;collapsible=0;dropTarget=0;points=[[0,0.5],[1,0.5]];portConstraint=eastwest;top=0;left=0;right=0;bottom=0;" vertex="1" parent="Mu4hMx2b1AOe4aTeyVQP-49">
          <mxGeometry y="90" width="180" height="30" as="geometry" />
        </mxCell>
        <mxCell id="h6lxW0l-rEsgfM09pOZ4-15" value="" style="shape=partialRectangle;connectable=0;fillColor=none;top=0;left=0;bottom=0;right=0;editable=1;overflow=hidden;whiteSpace=wrap;html=1;" vertex="1" parent="h6lxW0l-rEsgfM09pOZ4-14">
          <mxGeometry width="30" height="30" as="geometry">
            <mxRectangle width="30" height="30" as="alternateBounds" />
          </mxGeometry>
        </mxCell>
        <mxCell id="h6lxW0l-rEsgfM09pOZ4-16" value="salidas" style="shape=partialRectangle;connectable=0;fillColor=none;top=0;left=0;bottom=0;right=0;align=left;spacingLeft=6;overflow=hidden;whiteSpace=wrap;html=1;" vertex="1" parent="h6lxW0l-rEsgfM09pOZ4-14">
          <mxGeometry x="30" width="150" height="30" as="geometry">
            <mxRectangle width="150" height="30" as="alternateBounds" />
          </mxGeometry>
        </mxCell>
        <mxCell id="h6lxW0l-rEsgfM09pOZ4-17" value="" style="shape=tableRow;horizontal=0;startSize=0;swimlaneHead=0;swimlaneBody=0;fillColor=none;collapsible=0;dropTarget=0;points=[[0,0.5],[1,0.5]];portConstraint=eastwest;top=0;left=0;right=0;bottom=0;" vertex="1" parent="Mu4hMx2b1AOe4aTeyVQP-49">
          <mxGeometry y="120" width="180" height="30" as="geometry" />
        </mxCell>
        <mxCell id="h6lxW0l-rEsgfM09pOZ4-18" value="" style="shape=partialRectangle;connectable=0;fillColor=none;top=0;left=0;bottom=0;right=0;editable=1;overflow=hidden;whiteSpace=wrap;html=1;" vertex="1" parent="h6lxW0l-rEsgfM09pOZ4-17">
          <mxGeometry width="30" height="30" as="geometry">
            <mxRectangle width="30" height="30" as="alternateBounds" />
          </mxGeometry>
        </mxCell>
        <mxCell id="h6lxW0l-rEsgfM09pOZ4-19" value="entradas" style="shape=partialRectangle;connectable=0;fillColor=none;top=0;left=0;bottom=0;right=0;align=left;spacingLeft=6;overflow=hidden;whiteSpace=wrap;html=1;" vertex="1" parent="h6lxW0l-rEsgfM09pOZ4-17">
          <mxGeometry x="30" width="150" height="30" as="geometry">
            <mxRectangle width="150" height="30" as="alternateBounds" />
          </mxGeometry>
        </mxCell>
        <mxCell id="h6lxW0l-rEsgfM09pOZ4-20" value="" style="shape=tableRow;horizontal=0;startSize=0;swimlaneHead=0;swimlaneBody=0;fillColor=none;collapsible=0;dropTarget=0;points=[[0,0.5],[1,0.5]];portConstraint=eastwest;top=0;left=0;right=0;bottom=0;" vertex="1" parent="Mu4hMx2b1AOe4aTeyVQP-49">
          <mxGeometry y="150" width="180" height="30" as="geometry" />
        </mxCell>
        <mxCell id="h6lxW0l-rEsgfM09pOZ4-21" value="" style="shape=partialRectangle;connectable=0;fillColor=none;top=0;left=0;bottom=0;right=0;editable=1;overflow=hidden;whiteSpace=wrap;html=1;" vertex="1" parent="h6lxW0l-rEsgfM09pOZ4-20">
          <mxGeometry width="30" height="30" as="geometry">
            <mxRectangle width="30" height="30" as="alternateBounds" />
          </mxGeometry>
        </mxCell>
        <mxCell id="h6lxW0l-rEsgfM09pOZ4-22" value="fecha" style="shape=partialRectangle;connectable=0;fillColor=none;top=0;left=0;bottom=0;right=0;align=left;spacingLeft=6;overflow=hidden;whiteSpace=wrap;html=1;" vertex="1" parent="h6lxW0l-rEsgfM09pOZ4-20">
          <mxGeometry x="30" width="150" height="30" as="geometry">
            <mxRectangle width="150" height="30" as="alternateBounds" />
          </mxGeometry>
        </mxCell>
        <mxCell id="Mu4hMx2b1AOe4aTeyVQP-56" value="" style="shape=tableRow;horizontal=0;startSize=0;swimlaneHead=0;swimlaneBody=0;fillColor=none;collapsible=0;dropTarget=0;points=[[0,0.5],[1,0.5]];portConstraint=eastwest;top=0;left=0;right=0;bottom=0;" vertex="1" parent="Mu4hMx2b1AOe4aTeyVQP-49">
          <mxGeometry y="180" width="180" height="30" as="geometry" />
        </mxCell>
        <mxCell id="Mu4hMx2b1AOe4aTeyVQP-57" value="FK" style="shape=partialRectangle;connectable=0;fillColor=none;top=0;left=0;bottom=0;right=0;editable=1;overflow=hidden;whiteSpace=wrap;html=1;" vertex="1" parent="Mu4hMx2b1AOe4aTeyVQP-56">
          <mxGeometry width="30" height="30" as="geometry">
            <mxRectangle width="30" height="30" as="alternateBounds" />
          </mxGeometry>
        </mxCell>
        <mxCell id="Mu4hMx2b1AOe4aTeyVQP-58" value="idVentas" style="shape=partialRectangle;connectable=0;fillColor=none;top=0;left=0;bottom=0;right=0;align=left;spacingLeft=6;overflow=hidden;whiteSpace=wrap;html=1;" vertex="1" parent="Mu4hMx2b1AOe4aTeyVQP-56">
          <mxGeometry x="30" width="150" height="30" as="geometry">
            <mxRectangle width="150" height="30" as="alternateBounds" />
          </mxGeometry>
        </mxCell>
        <mxCell id="h6lxW0l-rEsgfM09pOZ4-1" value="1:1" style="text;html=1;align=center;verticalAlign=middle;resizable=0;points=[];autosize=1;strokeColor=none;fillColor=none;" vertex="1" parent="1">
          <mxGeometry x="520" y="110" width="40" height="30" as="geometry" />
        </mxCell>
        <mxCell id="h6lxW0l-rEsgfM09pOZ4-2" value="comentarios" style="ellipse;whiteSpace=wrap;html=1;align=center;" vertex="1" parent="1">
          <mxGeometry x="1160" y="-310" width="100" height="40" as="geometry" />
        </mxCell>
        <mxCell id="h6lxW0l-rEsgfM09pOZ4-4" value="entradas" style="ellipse;whiteSpace=wrap;html=1;align=center;" vertex="1" parent="1">
          <mxGeometry x="790" y="10" width="100" height="40" as="geometry" />
        </mxCell>
        <mxCell id="h6lxW0l-rEsgfM09pOZ4-5" value="salidas" style="ellipse;whiteSpace=wrap;html=1;align=center;" vertex="1" parent="1">
          <mxGeometry x="690" y="20" width="100" height="40" as="geometry" />
        </mxCell>
        <mxCell id="h6lxW0l-rEsgfM09pOZ4-6" value="fecha" style="ellipse;whiteSpace=wrap;html=1;align=center;" vertex="1" parent="1">
          <mxGeometry x="800" y="110" width="100" height="40" as="geometry" />
        </mxCell>
        <mxCell id="h6lxW0l-rEsgfM09pOZ4-13" value="" style="edgeStyle=entityRelationEdgeStyle;fontSize=12;html=1;endArrow=ERmandOne;startArrow=ERmandOne;rounded=0;entryX=0;entryY=0.5;entryDx=0;entryDy=0;exitX=1;exitY=0.5;exitDx=0;exitDy=0;" edge="1" parent="1" source="Mu4hMx2b1AOe4aTeyVQP-56" target="eptWDj3NKp6KgpNxHlbf-143">
          <mxGeometry width="100" height="100" relative="1" as="geometry">
            <mxPoint x="500" y="1260" as="sourcePoint" />
            <mxPoint x="600" y="1160" as="targetPoint" />
          </mxGeometry>
        </mxCell>
        <mxCell id="h6lxW0l-rEsgfM09pOZ4-30" style="edgeStyle=orthogonalEdgeStyle;rounded=0;orthogonalLoop=1;jettySize=auto;html=1;endArrow=none;endFill=0;" edge="1" parent="1" source="h6lxW0l-rEsgfM09pOZ4-28" target="jlm8GovE4o78zpknhKyV-8">
          <mxGeometry relative="1" as="geometry" />
        </mxCell>
        <mxCell id="h6lxW0l-rEsgfM09pOZ4-28" value="Realiza" style="shape=rhombus;perimeter=rhombusPerimeter;whiteSpace=wrap;html=1;align=center;" vertex="1" parent="1">
          <mxGeometry x="130" y="-220" width="120" height="60" as="geometry" />
        </mxCell>
        <mxCell id="h6lxW0l-rEsgfM09pOZ4-34" style="edgeStyle=orthogonalEdgeStyle;rounded=0;orthogonalLoop=1;jettySize=auto;html=1;entryX=1;entryY=0.5;entryDx=0;entryDy=0;endArrow=none;endFill=0;" edge="1" parent="1" source="h6lxW0l-rEsgfM09pOZ4-32" target="jlm8GovE4o78zpknhKyV-8">
          <mxGeometry relative="1" as="geometry">
            <Array as="points">
              <mxPoint x="1350" y="-190" />
            </Array>
          </mxGeometry>
        </mxCell>
        <mxCell id="h6lxW0l-rEsgfM09pOZ4-32" value="Realiza" style="shape=rhombus;perimeter=rhombusPerimeter;whiteSpace=wrap;html=1;align=center;" vertex="1" parent="1">
          <mxGeometry x="1290" y="95" width="120" height="60" as="geometry" />
        </mxCell>
        <mxCell id="h6lxW0l-rEsgfM09pOZ4-35" value="0:n" style="text;html=1;align=center;verticalAlign=middle;resizable=0;points=[];autosize=1;strokeColor=none;fillColor=none;" vertex="1" parent="1">
          <mxGeometry x="-150" y="398" width="40" height="30" as="geometry" />
        </mxCell>
        <mxCell id="h6lxW0l-rEsgfM09pOZ4-36" value="0:n" style="text;html=1;align=center;verticalAlign=middle;resizable=0;points=[];autosize=1;strokeColor=none;fillColor=none;" vertex="1" parent="1">
          <mxGeometry x="170" y="-250" width="40" height="30" as="geometry" />
        </mxCell>
        <mxCell id="h6lxW0l-rEsgfM09pOZ4-37" value="0:n" style="text;html=1;align=center;verticalAlign=middle;resizable=0;points=[];autosize=1;strokeColor=none;fillColor=none;" vertex="1" parent="1">
          <mxGeometry x="960" y="-220" width="40" height="30" as="geometry" />
        </mxCell>
        <mxCell id="h6lxW0l-rEsgfM09pOZ4-38" value="0:n" style="text;html=1;align=center;verticalAlign=middle;resizable=0;points=[];autosize=1;strokeColor=none;fillColor=none;" vertex="1" parent="1">
          <mxGeometry x="1271" y="398" width="40" height="30" as="geometry" />
        </mxCell>
        <mxCell id="h6lxW0l-rEsgfM09pOZ4-39" value="0:n" style="text;html=1;align=center;verticalAlign=middle;resizable=0;points=[];autosize=1;strokeColor=none;fillColor=none;" vertex="1" parent="1">
          <mxGeometry x="1250" y="110" width="40" height="30" as="geometry" />
        </mxCell>
        <mxCell id="h6lxW0l-rEsgfM09pOZ4-40" value="0:n" style="text;html=1;align=center;verticalAlign=middle;resizable=0;points=[];autosize=1;strokeColor=none;fillColor=none;" vertex="1" parent="1">
          <mxGeometry x="1120" y="-220" width="40" height="30" as="geometry" />
        </mxCell>
        <mxCell id="h6lxW0l-rEsgfM09pOZ4-48" value="" style="edgeStyle=entityRelationEdgeStyle;fontSize=12;html=1;endArrow=ERzeroToMany;endFill=1;rounded=0;exitX=0;exitY=0.5;exitDx=0;exitDy=0;entryX=1;entryY=0.5;entryDx=0;entryDy=0;" edge="1" parent="1" source="Y2dzQ53fjyAzNFY5iu_s-14" target="h6lxW0l-rEsgfM09pOZ4-44">
          <mxGeometry width="100" height="100" relative="1" as="geometry">
            <mxPoint x="-370" y="1300" as="sourcePoint" />
            <mxPoint x="-270" y="1200" as="targetPoint" />
          </mxGeometry>
        </mxCell>
        <mxCell id="h6lxW0l-rEsgfM09pOZ4-49" value="" style="edgeStyle=orthogonalEdgeStyle;fontSize=12;html=1;endArrow=ERzeroToMany;endFill=1;rounded=0;exitX=0;exitY=0.5;exitDx=0;exitDy=0;entryX=1;entryY=0.5;entryDx=0;entryDy=0;" edge="1" parent="1" source="Y2dzQ53fjyAzNFY5iu_s-65" target="h6lxW0l-rEsgfM09pOZ4-41">
          <mxGeometry width="100" height="100" relative="1" as="geometry">
            <mxPoint x="-280" y="2270" as="sourcePoint" />
            <mxPoint x="-180" y="2170" as="targetPoint" />
            <Array as="points">
              <mxPoint x="50" y="2135" />
              <mxPoint x="50" y="2430" />
              <mxPoint x="1420" y="2430" />
              <mxPoint x="1420" y="945" />
              <mxPoint x="-230" y="945" />
              <mxPoint x="-230" y="1065" />
            </Array>
          </mxGeometry>
        </mxCell>
      </root>
    </mxGraphModel>
  </diagram>
</mxfile>
